<svg width="1661" height="1163" viewBox="0 0 1661 1163" fill="none" xmlns="http://www.w3.org/2000/svg">
<g clip-path="url(#clip0_64_329)">
<path d="M1657.77 1077.06C1657.77 1077.06 1657.78 1077.08 1657.78 1077.09C1657.8 1077.11 1657.81 1077.13 1657.82 1077.15C1657.93 1077.38 1657.98 1077.6 1657.98 1077.83C1657.98 1078.76 1657.23 1079.67 1656.76 1079.99C1656.75 1079.99 1656.75 1080 1656.74 1080C1655.95 1080.49 1656.13 1080.31 1657.05 1080.72C1657.15 1080.76 1657.25 1080.81 1657.36 1080.87C1657.43 1080.9 1657.5 1080.94 1657.56 1080.98C1657.94 1081.2 1658.22 1081.48 1658.34 1081.71C1658.46 1081.94 1658.41 1082.11 1658.12 1082.18C1656.17 1082.55 1658.43 1082.89 1658.53 1082.99C1658.67 1083.14 1659 1083.48 1659.32 1083.92C1659.49 1084.16 1659.65 1084.44 1659.79 1084.72C1660.16 1085.51 1660.32 1086.46 1659.71 1087.29C1659.59 1087.45 1659.45 1087.63 1659.26 1087.78C1659.12 1087.91 1658.92 1088.01 1658.65 1088.09C1658.57 1088.11 1658.51 1088.13 1658.43 1088.14C1654.99 1088.97 1645.44 1088.95 1640.86 1089.11C1636.95 1089.27 1616.71 1089.68 1606.8 1089.64C1583.35 1089.53 1566.78 1089.61 1515.35 1089.58C1500.94 1089.57 1455.99 1089.75 1447.19 1089.75C1366.95 1089.67 1223.58 1089.66 1143.32 1089.84C1075.64 1089.97 945.878 1090.07 850.155 1089.94C823.984 1089.9 800.354 1089.85 781.243 1089.76C780.003 1089.76 778.743 1089.76 777.463 1089.75C696.201 1089.68 558.126 1089.68 479.964 1089.84C412.282 1089.97 282.508 1090.07 186.785 1089.94C158.874 1089.9 133.844 1089.84 114.113 1089.76C89.2723 1089.65 40.7008 1089.57 30.1705 1089.54C25.1204 1089.52 2.22967 1089.23 0.639619 1088.34C-0.0104003 1087.98 -0.32041 1087.4 0.479615 1086.64C0.719622 1086.42 1.06963 1086.17 1.54965 1085.9C1.56965 1085.89 1.56965 1085.88 1.56965 1085.88C2.22967 1085.5 1.12963 1085.1 0.619619 1084.57C0.559617 1084.51 0.619619 1084.37 0.789624 1084.21C0.889627 1084.12 1.02963 1084.01 1.19964 1083.9C1.50965 1083.71 1.90966 1083.54 2.34967 1083.45H2.35967C2.42967 1083.44 2.48968 1083.43 2.55968 1083.42C2.58968 1083.42 2.61968 1083.42 2.63968 1083.42C3.62971 1083.29 2.68968 1083.29 2.01966 1083.16C1.06963 1082.97 1.83966 1082.8 2.03966 1082.64C2.36967 1082.35 2.66968 1082.18 2.75968 1082.09C2.78968 1082.06 2.82969 1082.03 2.85969 1082.01C2.89969 1081.97 2.94969 1081.93 2.98969 1081.89C3.2897 1081.61 3.56971 1081.37 3.74971 1081.14C3.77971 1081.1 3.80971 1081.06 3.83972 1081.03C4.05972 1080.72 4.04972 1080.48 3.58971 1080.34C3.54971 1080.33 3.4697 1080.19 3.50971 1079.99C3.51971 1079.88 3.56971 1079.75 3.68971 1079.61C3.81972 1079.48 4.01972 1079.35 4.31973 1079.23C4.31973 1079.23 4.53974 1079.07 4.78974 1078.9C5.09975 1078.67 5.45976 1078.42 5.46976 1078.42C6.31979 1078.1 6.07978 1078.21 5.18976 1077.77C4.73974 1077.55 4.66974 1077.35 4.72974 1077.04C4.72974 1076.96 4.74974 1076.89 4.76974 1076.85C4.85975 1076.66 4.92975 1076.49 5.00975 1076.34C5.00975 1076.32 5.02975 1076.29 5.03975 1076.27C5.15976 1076.05 5.23976 1075.91 5.27976 1075.87C5.34976 1075.81 5.38976 1075.71 5.41976 1075.59C5.53977 1074.89 4.98975 1073.38 6.6098 1072.92C7.06981 1072.79 6.95981 1072.33 6.7498 1071.86C6.6398 1071.59 6.4998 1071.33 6.40979 1071.12C6.33979 1070.99 6.29979 1070.88 6.29979 1070.8C6.27979 1070.53 6.27979 1070.28 6.29979 1070.03V1069.72C6.31979 1069.48 6.45979 1069.1 6.5398 1068.59C6.5598 1068.49 6.5698 1068.39 6.5798 1068.29C6.5998 1068.15 6.6298 1068 6.6798 1067.83C6.7398 1067.61 6.81981 1067.36 6.90981 1067.11C6.98981 1066.84 7.08981 1066.57 7.16982 1066.32C7.25982 1066.05 7.33982 1065.8 7.37982 1065.61C7.43982 1065.36 7.16982 1064.99 7.25982 1064.79C7.25982 1064.77 7.27982 1064.75 7.27982 1064.73C7.37982 1064.44 7.49983 1064.18 7.63983 1063.96C7.88984 1063.56 8.18985 1063.29 8.53986 1063.19C9.9799 1062.78 8.67986 1062.82 8.22985 1062.63C8.04984 1062.55 7.94984 1062.46 7.88984 1062.36C7.73983 1062.09 8.00984 1061.78 8.18985 1061.59C8.19985 1061.58 8.19985 1061.57 8.18985 1061.54C8.15985 1061.43 7.99984 1061.14 8.06984 1060.96C8.08984 1060.9 8.12985 1060.85 8.21985 1060.82C8.24985 1060.81 8.27985 1060.8 8.29985 1060.79C8.56986 1060.68 7.80984 1060.6 7.57983 1060.54C7.31982 1060.46 6.79981 1060.31 6.37979 1060.2H6.36979C6.22979 1060.16 6.09978 1060.12 5.99978 1060.09C5.33976 1059.89 5.43976 1059.71 5.45976 1059.33V1059.24C5.45976 1059.06 5.55977 1058.8 5.69977 1058.55C5.80977 1058.36 5.93978 1058.18 6.06978 1058.03C6.25979 1057.8 6.35979 1057.74 6.6598 1057.54C6.94981 1057.33 5.94978 1057.23 5.99978 1057.05C6.04978 1056.84 6.5498 1056.39 6.5198 1056.23C6.4898 1056.1 6.38979 1056.04 6.40979 1055.93C6.40979 1055.88 6.43979 1055.83 6.5198 1055.74C6.7798 1055.46 6.87981 1055.28 6.89981 1055.17C6.93981 1055.03 6.83981 1054.99 6.80981 1054.96C6.6598 1054.82 6.84981 1054.01 7.68983 1053.73C8.10984 1053.59 8.74986 1053.58 8.00984 1053.45C7.59983 1053.38 6.85981 1052.79 7.26982 1052.66C8.08984 1052.4 6.4998 1052.48 6.43979 1052.25C6.41979 1052.17 5.62977 1052.23 5.60977 1052.16C5.14976 1050.49 0.369609 1050.21 36.2107 1049.9C42.1809 1049.85 79.172 1049.08 139.564 1048.97C145.064 1048.96 221.576 1049.18 226.546 1049.18C411.902 1049.11 558.816 1049.01 649.329 1048.69C653.659 1048.69 659.089 1048.67 665.35 1048.67C665.35 1048.67 665.356 1048.67 665.37 1048.67C665.62 1048.62 665.88 1048.59 666.14 1048.59H699.581C705.541 1048.54 742.532 1047.73 802.934 1047.63C808.424 1047.62 884.946 1047.86 889.916 1047.86C1075.27 1047.77 1222.19 1047.67 1312.69 1047.34C1340.77 1047.24 1414.65 1047.39 1462.88 1047.52C1524 1047.67 1590.04 1047.04 1604.26 1047.01C1615.86 1046.99 1622.68 1047.1 1632.03 1047.43C1632.03 1047.43 1640.45 1047.76 1640.47 1047.76C1645.08 1047.94 1646.52 1048.2 1648.9 1048.36C1649.33 1048.39 1649.71 1048.41 1650.06 1048.44C1651.44 1048.56 1652.26 1049.14 1651.81 1049.69C1651.75 1049.77 1651.71 1049.83 1651.67 1049.88C1651.55 1050.12 1650.87 1050.25 1651.61 1050.42C1651.87 1050.48 1651.77 1051.08 1650.74 1051.42C1649.96 1051.68 1653.67 1051.78 1653.36 1052.39C1653.23 1052.68 1654.59 1053.15 1655.06 1053.8C1655.1 1053.85 1655.12 1053.9 1655.15 1053.95C1655.26 1054.2 1655.28 1054.45 1655.24 1054.7C1655.14 1055.32 1654.7 1055.9 1654.61 1055.94C1654.31 1056.1 1654.78 1056.59 1655.24 1057.02C1655.55 1057.32 1655.84 1057.61 1655.89 1057.75C1655.9 1057.77 1655.9 1057.79 1655.9 1057.8C1655.74 1058.41 1655.07 1059.2 1654.84 1059.85C1654.74 1060.12 1654.66 1060.39 1654.56 1060.66C1654.5 1060.82 1654.44 1060.99 1654.39 1061.14C1654.3 1061.41 1654.21 1061.67 1654.15 1061.9C1654.04 1062.29 1653.98 1062.6 1653.99 1062.81C1653.99 1062.85 1653.99 1062.89 1654.01 1062.93C1654.04 1063.19 1654.13 1063.41 1654.25 1063.6C1654.27 1063.64 1654.3 1063.67 1654.32 1063.73C1654.48 1063.96 1654.66 1064.17 1654.83 1064.39C1655.13 1064.75 1655.36 1065.13 1655.27 1065.73C1655.25 1065.87 1655.23 1066.03 1655.17 1066.2C1655.16 1066.22 1655.16 1066.23 1655.15 1066.25C1655.12 1066.35 1655.08 1066.43 1655.05 1066.52C1654.88 1066.88 1655.13 1066.85 1656.06 1066.98C1656.51 1067.04 1657.12 1067.14 1657.92 1067.33C1658.63 1067.5 1658.87 1067.89 1658.93 1068.3C1658.97 1068.57 1658.94 1068.85 1658.91 1069.08C1658.88 1069.37 1658.86 1069.62 1658.96 1069.76C1659.02 1069.84 1659.06 1069.92 1659.1 1070.01C1659.16 1070.15 1659.12 1070.33 1659.02 1070.55C1658.84 1070.9 1658.53 1071.35 1658.27 1071.79C1657.98 1072.27 1656.47 1072.56 1658.53 1073.07C1662.71 1074.12 1660.68 1075.65 1659.02 1076.37C1658.97 1076.4 1658.91 1076.43 1658.86 1076.45C1658.28 1076.7 1657.48 1076.55 1657.77 1077.07V1077.06Z" fill="#8F4822"/>
<path d="M1655.24 1057.01C1583.78 1060.81 1507.93 1060.14 1431.84 1058.2C1507.21 1057.3 1581.77 1056.14 1655.24 1054.69C1655.28 1054.44 1655.26 1054.19 1655.15 1053.94C1575.4 1055.51 1494.3 1056.73 1412.34 1057.68C1386.88 1056.95 1361.43 1056.13 1336.14 1055.3C1265.28 1052.99 1198.33 1050.8 1134.37 1051.08C1066.35 1051.36 999.52 1051.72 934.838 1052.07C741.232 1053.14 558.337 1054.13 358.701 1052.96C331.28 1052.8 300.969 1053.1 271.668 1053.39C240.567 1053.7 208.396 1054.02 179.365 1053.79C142.394 1053.5 63.2816 1054.04 6.8999 1055.16C6.8799 1055.27 6.77989 1055.45 6.51989 1055.73C6.43988 1055.82 6.40988 1055.87 6.40988 1055.92C62.7816 1054.8 142.274 1054.26 179.345 1054.55C208.396 1054.78 240.577 1054.46 271.678 1054.14C300.989 1053.85 331.28 1053.55 358.681 1053.71C558.337 1054.89 741.232 1053.89 934.858 1052.83C999.52 1052.47 1066.36 1052.11 1134.39 1051.83C1198.3 1051.57 1265.23 1053.74 1336.08 1056.06C1355.19 1056.68 1374.41 1057.3 1393.64 1057.89C1083.13 1061.3 760.073 1060.84 444.943 1060.39C292.899 1060.17 148.484 1059.98 6.37988 1060.19C6.7999 1060.3 7.31991 1060.45 7.57992 1060.53C7.80993 1060.59 8.56995 1060.67 8.29994 1060.78C8.27994 1060.79 8.24994 1060.8 8.21994 1060.81C8.12994 1060.84 8.08993 1060.89 8.06993 1060.95C149.634 1060.73 293.499 1060.93 444.943 1061.15C766.393 1061.6 1096.1 1062.06 1412.33 1058.43C1495.13 1060.77 1578.1 1061.89 1655.89 1057.74C1655.84 1057.6 1655.55 1057.31 1655.24 1057.01Z" fill="#B26B31"/>
<path d="M1656.06 1066.97C1328.44 1076.4 989.26 1073.5 660.77 1070.68C445.223 1068.83 222.817 1066.94 6.54004 1068.58C6.56004 1068.48 6.57004 1068.38 6.58004 1068.28C6.60004 1068.14 6.63004 1067.99 6.68004 1067.82C222.927 1066.17 445.273 1068.07 660.79 1069.92C988.94 1072.74 1327.82 1075.65 1655.15 1066.24C1655.12 1066.34 1655.08 1066.42 1655.05 1066.51C1654.88 1066.87 1655.13 1066.84 1656.06 1066.97Z" fill="#B26B31"/>
<path d="M1656.74 1080C1656.74 1080 1656.75 1079.99 1656.76 1079.99C1529.62 1085.59 1287.86 1085.76 1022.55 1084.04C1193.52 1081.93 1526.79 1078.04 1657.98 1077.83C1657.98 1077.6 1657.93 1077.38 1657.82 1077.15C1657.81 1077.13 1657.8 1077.11 1657.78 1077.09C1515.47 1077.33 1136.57 1081.84 983.44 1083.77C823.745 1082.63 657.26 1080.88 503.325 1079.25C292.209 1077.03 104.223 1075.05 5.42048 1075.58C5.39048 1075.7 5.35048 1075.8 5.28048 1075.86C5.24048 1075.9 5.16047 1076.04 5.04047 1076.26C5.03047 1076.28 5.01047 1076.31 5.01047 1076.33C103.663 1075.8 291.859 1077.78 503.295 1080.01C645.23 1081.51 797.884 1083.12 946.019 1084.25C935.759 1084.37 928.038 1084.49 923.288 1084.56C531.486 1089.98 230.087 1088.14 4.79046 1078.89C4.54046 1079.06 4.33045 1079.22 4.32045 1079.22C4.02044 1079.34 3.82043 1079.47 3.69043 1079.6C229.157 1088.89 530.896 1090.74 923.328 1085.31C932.728 1085.18 953.889 1084.9 983.44 1084.53C1264.05 1086.53 1523.65 1086.62 1657.05 1080.72C1656.13 1080.31 1655.95 1080.49 1656.74 1080Z" fill="#B26B31"/>
</g>
<g clip-path="url(#clip1_64_329)">
<path d="M1609.32 975.39C1609.28 1003.3 1609.22 1028.33 1609.14 1048.06C1609.03 1072.9 1608.95 1121.47 1608.92 1132C1608.9 1137.05 1608.61 1159.94 1607.73 1161.53C1607.37 1162.18 1606.8 1162.49 1606.04 1161.69C1605.82 1161.45 1605.57 1161.1 1605.31 1160.62C1605.3 1160.6 1605.29 1160.6 1605.29 1160.6C1604.91 1159.94 1604.51 1161.04 1603.98 1161.55C1603.92 1161.61 1603.79 1161.55 1603.63 1161.38C1603.54 1161.28 1603.43 1161.14 1603.32 1160.97C1603.13 1160.66 1602.96 1160.26 1602.87 1159.82C1602.86 1159.74 1602.85 1159.68 1602.84 1159.61C1602.84 1159.58 1602.83 1159.55 1602.83 1159.53C1602.7 1158.54 1602.7 1159.48 1602.57 1160.15C1602.38 1161.1 1602.22 1160.33 1602.06 1160.13C1601.77 1159.8 1601.6 1159.5 1601.51 1159.41C1601.48 1159.38 1601.45 1159.34 1601.43 1159.31C1601.39 1159.27 1601.35 1159.22 1601.31 1159.18C1601.03 1158.88 1600.79 1158.6 1600.57 1158.42C1600.53 1158.39 1600.49 1158.36 1600.46 1158.33C1600.15 1158.11 1599.91 1158.12 1599.77 1158.58C1599.76 1158.62 1599.62 1158.7 1599.42 1158.66C1599.2 1158.64 1598.9 1158.46 1598.67 1157.85C1598.66 1157.83 1597.86 1156.72 1597.86 1156.7C1597.54 1155.85 1597.65 1156.09 1597.22 1156.98C1597 1157.43 1596.8 1157.5 1596.49 1157.44C1596.41 1157.44 1596.34 1157.42 1596.3 1157.4C1596.08 1157.3 1595.88 1157.22 1595.73 1157.13C1595.51 1157.01 1595.37 1156.93 1595.33 1156.89C1594.88 1156.38 1592.93 1157.45 1592.4 1155.56C1592.27 1155.1 1591.81 1155.21 1591.34 1155.42C1591.08 1155.53 1590.82 1155.67 1590.61 1155.76C1590.48 1155.83 1590.37 1155.87 1590.29 1155.87C1590.02 1155.89 1589.77 1155.89 1589.53 1155.87H1589.22C1588.93 1155.85 1588.45 1155.65 1587.8 1155.59C1587.48 1155.55 1587.05 1155.42 1586.62 1155.26C1586.36 1155.18 1586.09 1155.08 1585.84 1155C1585.57 1154.91 1585.32 1154.83 1585.13 1154.79C1584.88 1154.73 1584.52 1155 1584.32 1154.91C1584.3 1154.91 1584.28 1154.89 1584.26 1154.89C1583.97 1154.79 1583.71 1154.67 1583.49 1154.53C1583.1 1154.28 1582.83 1153.98 1582.73 1153.63C1582.32 1152.19 1582.36 1153.49 1582.17 1153.94C1582.09 1154.12 1582 1154.22 1581.9 1154.28C1581.64 1154.43 1581.33 1154.16 1581.14 1153.98C1581.13 1153.97 1581.12 1153.97 1581.09 1153.98C1580.94 1154.02 1580.47 1154.3 1580.37 1153.95C1580.36 1153.92 1580.35 1153.89 1580.34 1153.87C1580.23 1153.6 1580.15 1154.36 1580.09 1154.59C1579.99 1154.94 1579.77 1155.76 1579.65 1156.17C1579.45 1156.83 1579.27 1156.73 1578.89 1156.71H1578.8C1578.62 1156.71 1578.37 1156.61 1578.12 1156.47C1577.93 1156.36 1577.75 1156.23 1577.6 1156.1C1577.37 1155.91 1577.31 1155.81 1577.11 1155.51C1576.91 1155.22 1576.81 1156.22 1576.63 1156.17C1576.42 1156.12 1575.97 1155.62 1575.81 1155.65C1575.62 1155.69 1575.58 1155.89 1575.33 1155.65C1574.68 1155.06 1574.6 1155.3 1574.55 1155.36C1574.41 1155.51 1573.61 1155.32 1573.33 1154.48C1573.19 1154.06 1573.18 1153.42 1573.05 1154.16C1572.98 1154.57 1572.39 1155.31 1572.26 1154.9C1572.01 1154.08 1572.09 1155.67 1571.86 1155.73C1571.78 1155.75 1571.84 1156.54 1571.77 1156.56C1570.11 1157.02 1569.83 1161.8 1569.52 1125.96C1569.47 1119.99 1568.71 1083 1568.6 1022.61C1568.6 1017.11 1568.81 940.6 1568.81 935.63C1568.74 750.28 1568.64 603.37 1568.32 512.86C1568.22 484.79 1568.37 410.91 1568.49 362.67C1568.64 301.57 1568.03 235.52 1568.01 221.31V219.46C1568 219.39 1568 219.33 1568 219.26V166.92C1568 164.76 1569.76 163 1571.93 163H1604.81C1606.97 163 1608.73 164.76 1608.73 166.92V193.4C1608.89 201.26 1609.06 212.24 1609.03 218.76C1608.92 242.22 1609 258.79 1608.97 310.22C1608.96 324.62 1609.15 369.57 1609.14 378.37C1609.06 458.61 1609.06 601.98 1609.22 682.22C1609.35 749.9 1609.45 879.67 1609.32 975.39Z" fill="#8F4822"/>
<path d="M1601.8 957.32C1604.1 915.19 1606.27 875.39 1606 837.37C1605.72 796.93 1605.36 757.2 1605.01 718.75C1603.95 603.65 1602.96 494.92 1604.13 376.24C1604.29 359.94 1603.99 341.92 1603.7 324.5C1603.39 306.01 1603.07 286.89 1603.3 269.63C1603.6 246.74 1603 196.67 1601.8 163H1601.06C1602.26 196.64 1602.85 246.73 1602.55 269.62C1602.32 286.89 1602.64 306.02 1602.95 324.51C1603.24 341.93 1603.54 359.94 1603.38 376.23C1602.21 494.92 1603.2 603.65 1604.26 718.76C1604.61 757.2 1604.97 796.94 1605.25 837.38C1605.51 875.37 1603.35 915.16 1601.05 957.28C1600.43 968.64 1599.81 980.07 1599.23 991.5C1595.84 806.91 1596.3 614.85 1596.74 427.51C1596.96 335.77 1597.16 248.7 1596.93 163H1596.18C1596.42 248.7 1596.21 335.77 1595.99 427.51C1595.54 618.61 1595.08 814.62 1598.69 1002.61C1596.19 1055.74 1595.08 1108.97 1600.46 1158.33C1600.49 1158.36 1600.53 1158.39 1600.57 1158.42C1600.79 1158.6 1601.03 1158.88 1601.31 1159.18C1596.21 1113.19 1596.81 1063.78 1598.92 1014.21C1599.9 1063.3 1601.19 1111.81 1602.83 1159.53C1602.83 1159.55 1602.84 1159.58 1602.84 1159.61C1602.84 1159.68 1602.86 1159.74 1602.87 1159.81C1602.96 1160.26 1603.13 1160.66 1603.32 1160.97C1603.43 1161.14 1603.54 1161.28 1603.63 1161.38C1601.84 1109.33 1600.48 1056.29 1599.44 1002.62C1600.16 987.48 1600.98 972.35 1601.8 957.32Z" fill="#B26B31"/>
<path d="M1591.34 1155.42C1591.08 1155.53 1590.82 1155.67 1590.61 1155.76C1580.75 958.44 1583.68 753.86 1586.52 555.82C1588.38 426.39 1590.28 292.79 1588.56 163H1589.31C1591.04 292.8 1589.13 426.39 1587.27 555.83C1584.43 753.74 1581.5 958.21 1591.34 1155.42Z" fill="#B26B31"/>
<path d="M1580.44 462.22C1582.97 334.38 1585.22 220.81 1584.71 163H1583.96C1584.47 220.78 1582.22 334.34 1579.69 462.2C1578.01 546.58 1576.21 637.33 1574.89 725.39C1574.78 719.29 1574.68 714.7 1574.62 711.88C1569.7 477.3 1572 297.23 1581.64 163H1580.89C1571.24 297.26 1568.95 477.33 1573.87 711.9C1573.99 717.49 1574.24 730.07 1574.57 747.64C1572.13 920.54 1571.76 1080.03 1578.12 1156.47C1578.37 1156.61 1578.62 1156.71 1578.8 1156.71H1578.89C1572.8 1083.87 1572.86 934.95 1575 770.89C1576.92 874.88 1580.46 1079.88 1580.34 1153.87C1580.34 1153.89 1580.36 1153.92 1580.37 1153.95C1580.47 1154.3 1580.94 1154.02 1581.09 1153.98C1581.21 1074.05 1577.08 840.71 1575.32 747.64C1576.66 652.7 1578.62 553.73 1580.44 462.22Z" fill="#B26B31"/>
</g>
<g clip-path="url(#clip2_64_329)">
<path d="M92.9698 1132.78C92.9698 1132.78 92.6498 1141.2 92.6498 1141.22C92.4898 1145.83 92.2398 1147.27 92.0798 1149.65C92.0498 1150.08 92.0298 1150.46 91.9998 1150.81C91.8898 1152.19 91.3298 1153.01 90.7998 1152.56C90.7298 1152.5 90.6698 1152.46 90.6198 1152.42C90.3898 1152.3 90.2598 1151.62 90.0998 1152.36C90.0398 1152.62 89.4698 1152.52 89.1398 1151.49C88.8898 1150.71 88.7898 1154.42 88.1998 1154.11C87.9298 1153.98 87.4698 1155.34 86.8398 1155.81C86.0198 1156.41 84.8598 1155.49 84.7898 1155.36C84.5098 1154.83 83.2698 1156.71 82.9998 1156.65C82.4098 1156.49 81.6498 1155.82 81.0198 1155.59C80.7598 1155.49 80.4998 1155.41 80.2498 1155.31C80.0898 1155.25 79.9298 1155.19 79.7798 1155.14C79.5198 1155.05 79.2698 1154.96 79.0498 1154.9C78.6798 1154.79 78.3798 1154.73 78.1798 1154.74C78.1398 1154.74 78.0998 1154.74 78.0598 1154.76C77.8098 1154.79 77.5998 1154.88 77.4098 1155C77.3698 1155.02 77.3398 1155.05 77.2998 1155.07C77.0698 1155.23 76.8698 1155.41 76.6598 1155.58C76.3098 1155.88 75.9398 1156.11 75.3698 1156.02C75.2298 1156 75.0798 1155.98 74.9098 1155.92C74.7998 1155.88 74.6998 1155.84 74.5998 1155.8C74.0798 1155.55 74.4098 1156.21 73.8298 1158.67C73.6598 1159.38 73.2898 1159.62 72.8898 1159.68C72.6398 1159.72 72.3698 1159.69 72.1398 1159.66C71.8598 1159.63 71.6198 1159.61 71.4898 1159.71C71.4098 1159.77 71.3298 1159.81 71.2398 1159.85C71.1198 1159.91 70.9398 1159.87 70.7298 1159.77C70.3898 1159.59 69.9598 1159.28 69.5398 1159.02C69.0698 1158.73 68.7898 1157.22 68.2998 1159.28C67.2898 1163.46 65.8198 1161.43 65.1198 1159.77C65.0898 1159.72 65.0698 1159.66 65.0498 1159.61C64.8098 1159.03 64.9598 1158.23 64.4598 1158.52C64.4298 1158.54 64.3998 1158.55 64.3698 1158.57C63.2698 1159.13 61.9998 1158.08 61.6298 1157.49C61.0998 1156.62 61.3698 1156.93 60.7898 1158.11C60.7598 1158.18 60.7198 1158.25 60.6798 1158.31C60.4698 1158.69 60.1998 1158.97 59.9798 1159.09C59.7598 1159.21 59.5898 1159.16 59.5298 1158.87C59.1698 1156.92 58.8498 1159.18 58.7498 1159.28C58.6098 1159.42 58.2798 1159.75 57.8498 1160.07C57.6198 1160.24 57.3598 1160.4 57.0898 1160.54C56.3198 1160.91 55.4098 1161.07 54.6098 1160.46C54.4498 1160.34 54.2898 1160.2 54.1398 1160.01C54.0198 1159.87 53.9198 1159.67 53.8398 1159.4C53.8198 1159.32 53.7998 1159.26 53.7898 1159.18C52.9898 1155.74 53.0098 1146.19 52.8498 1141.61C52.7098 1137.7 52.3098 1117.46 52.3498 1107.55C52.4598 1084.1 52.3798 1067.53 52.4098 1016.1C52.4098 1001.7 52.2398 956.75 52.2398 947.95C52.3198 867.71 52.3298 724.34 52.1598 644.09C52.0298 576.41 51.9298 446.65 52.0598 350.93C52.0998 323.01 52.1598 297.99 52.2398 278.26C52.3398 256.53 52.4098 216.61 52.4498 199.93V166.92C52.4498 164.76 54.2098 163 56.3698 163H87.9398C90.1098 163 91.8598 164.76 91.8598 166.92V200.36C91.9098 206.32 92.6798 243.31 92.7798 303.71C92.7898 309.2 92.5698 385.72 92.5698 390.69C92.6398 576.04 92.7398 722.95 93.0598 813.45C93.1598 841.53 93.0098 915.41 92.8898 963.64C92.7398 1024.75 93.3498 1090.79 93.3798 1105.01C93.3998 1116.61 93.2898 1123.43 92.9698 1132.78Z" fill="#8F4822"/>
<path d="M62.5799 319.93C65.1399 266.33 66.2499 212.61 60.4199 163H59.6599C65.0799 209.07 64.5099 258.7 62.3499 308.5C61.3499 259.34 60.0399 210.76 58.3599 163H57.6199C59.4199 214.45 60.7899 266.87 61.8299 319.92C61.1099 334.84 60.2899 349.74 59.4699 364.55C57.1699 406.05 54.9999 445.25 55.2699 482.71C55.5499 522.54 55.9099 561.68 56.2599 599.55C57.3199 712.93 58.3099 820.04 57.1399 936.94C56.9799 953 57.2799 970.75 57.5699 987.91C57.8799 1006.13 58.1999 1024.96 57.9699 1041.96C57.6299 1067.46 58.4399 1127.19 59.9799 1159.09C60.1999 1158.97 60.4699 1158.69 60.6799 1158.31C59.1699 1126.27 58.3799 1067.27 58.7199 1041.97C58.9499 1024.96 58.6299 1006.12 58.3199 987.9C58.0299 970.74 57.7299 953 57.8899 936.95C59.0599 820.04 58.0699 712.93 57.0099 599.54C56.6599 561.68 56.2999 522.53 56.0199 482.7C55.7599 445.27 57.9199 406.08 60.2199 364.59C60.8399 353.4 61.4599 342.14 62.0399 330.88C65.4299 512.71 64.9699 701.9 64.5299 886.44C64.2999 980.95 64.0899 1070.41 64.3699 1158.57C64.3999 1158.55 64.4299 1158.54 64.4599 1158.52C64.9599 1158.23 64.8099 1159.03 65.0499 1159.61C65.0699 1159.66 65.0899 1159.72 65.1199 1159.77C64.8299 1071.22 65.0499 981.38 65.2799 886.44C65.7299 698.2 66.1899 505.11 62.5799 319.93Z" fill="#B26B31"/>
<path d="M74.7504 759.68C72.8304 891.52 70.8604 1027.74 72.8904 1159.68C72.6404 1159.72 72.3704 1159.69 72.1404 1159.66C70.1004 1027.71 72.0804 891.51 74.0004 759.67C76.8704 562.69 79.8204 359.13 69.6504 163H70.4004C80.5704 359.14 77.6204 562.69 74.7504 759.68Z" fill="#B26B31"/>
<path d="M87.3997 605.78C87.2797 600.27 87.0297 587.87 86.6997 570.54C89.1897 396.64 89.5197 236.51 82.7597 163H81.9997C88.4697 233.18 88.4497 382.64 86.2697 547.62C84.2797 441.59 80.5697 229.06 80.9497 163H80.1997C79.7997 234.29 84.1397 475.93 85.9497 570.54C84.6097 664.15 82.6497 761.74 80.8297 851.97C78.1697 984.68 75.8097 1101.79 76.6597 1155.58C76.8697 1155.41 77.0697 1155.23 77.2997 1155.07C77.3397 1155.05 77.3697 1155.02 77.4097 1155C76.5797 1100.99 78.9297 984.25 81.5797 851.99C83.2597 768.79 85.0597 679.31 86.3797 592.48C86.4897 598.5 86.5897 603.02 86.6497 605.8C91.6697 841.73 89.1797 1021.74 79.0497 1154.9C79.2697 1154.96 79.5197 1155.05 79.7797 1155.14C89.9297 1021.92 92.4197 841.84 87.3997 605.78Z" fill="#B26B31"/>
</g>
<g clip-path="url(#clip3_64_329)">
<path d="M1647.16 211.98C1646.87 212.759 1646.38 213.432 1645.79 213.867C1640.08 218.122 1624.25 217.929 1616.66 218.771C1610.18 219.497 1580.42 219.868 1564.19 218.802L28.8427 212.874C28.1615 212.872 6.31926 213.314 5.27769 207.735C4.23612 202.156 5.73512 202.979 6.37646 196.862C6.65915 194.141 11.4152 190.055 12.4383 184.613C13.4721 179.118 8.20415 178.763 8.52548 177.839C10.6035 171.845 59.8848 176.696 60.051 173.71C60.3494 168.65 14.983 174.51 9.06734 168.538C8.50446 167.968 10.7121 161.102 11.1083 160.006C13.4217 153.47 13.7705 149.718 18.2653 148.275C26.4136 145.65 101.908 142.154 105.179 140.364C105.542 140.167 105.015 147.631 104.91 146.944C104.059 141.551 20.3935 143.668 17.4757 139.446C7.52315 125.034 11.6562 113.812 12.2648 112.928C15.8421 107.65 43.1858 107.855 43.2211 101.433C43.2563 95.0508 17.6252 100.214 17.2161 97.4517C16.8071 94.6627 16.7088 86.0338 19.8455 82.6711C23.1208 79.1634 17.364 78.4505 18.7527 76.1939C25.2258 65.6766 55.7399 81.2299 59.8404 70.2581C61.6177 65.505 124.333 74.5745 123.433 72.5904C119.927 64.7998 53.0306 69.239 40.7361 69.5689C26.1425 69.9731 21.3912 71.8259 15.4327 66.0252C14.9441 65.5485 13.9347 45.2233 14.8321 43.6925C16.7338 40.4857 14.5279 41.6437 15.3715 40.4166C16.2471 39.1368 16.6511 39.3359 18.4727 38.6659C36.5393 32.006 62.2947 47.9453 57.3294 40.5743C53.2872 34.5664 38.4109 37.6524 17.6158 36.2327C15.0298 36.0553 14.7623 31.7999 15.0872 29.2503C15.6613 24.6928 13.0912 22.0444 13.5656 19.2969C13.8673 17.5798 15.9218 17.505 16.4649 17.374C17.8493 17.0467 21.2432 17.728 24.5864 17.286C40.2481 15.1928 1114.26 9.89984 1242.36 4.53717C1255.57 3.9846 1264.26 3.55429 1270.63 3.29072C1275.31 3.10272 1514.58 4.04791 1556.71 3.91525C1587.1 3.80981 1622.3 7.52047 1632.34 10.1059C1634.64 10.6923 1636 13.708 1635.23 16.5077C1635.14 16.8775 1635.05 17.1944 1635 17.4718C1634.8 18.6606 1634.75 19.3741 1634.75 19.9422C1634.76 21.224 1634.85 22.1624 1634.88 22.4267C1635.04 23.6824 1638.58 33.9705 1637.66 39.743C1637.12 43.0849 1637.08 42.2127 1636.36 45.0785C1635.89 46.9671 1635.95 47.9847 1636.63 49.2019C1637.46 50.6836 1637.79 48.4908 1638.47 51.7826C1640.08 59.7805 1635.96 80.0415 1638.83 85.0823C1640.32 87.6755 1640.85 88.1391 1641.45 93.1088C1641.65 94.7346 1642.04 97.18 1641.75 99.8221C1641.22 104.591 1637.2 103.063 1640.41 107.523C1643.36 111.612 1647.51 115.546 1648.05 119.26C1648.47 122.195 1644.44 132.387 1645.14 136.406C1646.44 143.967 1647.86 156.179 1645.97 160.06C1642.18 167.795 1596.95 167.538 1620.76 165.383C1622.71 165.202 1642.68 169.607 1643.06 172.026C1645.26 186.011 1652.13 199.213 1647.14 211.993L1647.16 211.98Z" fill="#8F4822"/>
<path d="M1647.19 206.787C1646.89 207.553 1646.41 208.199 1645.82 208.634C1640.14 212.797 1624.36 212.604 1616.81 213.434C1610.36 214.133 1580.71 214.504 1564.54 213.465L29.291 207.589C28.6098 207.588 8.09299 210.344 5.46333 205.754C4.06365 203.319 6.38259 199.096 7.02362 193.124C7.30619 190.456 5.14125 187.518 6.16401 182.208C7.19753 176.845 8.72528 174.246 9.04656 173.348C11.1136 167.485 60.2036 172.244 60.3803 169.311C60.6678 164.356 16.3021 170.126 10.4181 164.286C9.86585 163.73 10.3369 162.462 10.7331 161.393C13.0355 155.002 9.96698 146.658 14.4512 145.24C22.5674 142.681 102.087 138.468 105.347 136.704C105.71 136.507 105.958 134.803 105.853 134.129C105.003 128.855 17.224 133.01 14.3165 128.895C4.40591 114.8 18.7485 107.498 17.9333 100.612C17.3273 95.4172 43.7019 100.747 43.7369 94.4706C43.7718 88.2338 18.211 95.3267 17.8124 92.6169C17.4033 89.894 17.2041 83.5905 20.33 80.3071C23.5945 76.8786 17.4072 78.3583 18.785 76.1678C25.2257 65.9015 56.0966 78.9052 60.1646 68.1845C61.931 63.537 123.874 65.6015 122.984 63.6703C119.488 56.0647 41.1732 59.6729 29.0766 62.0118C25.6692 62.665 18.8861 63.9848 15.4131 60.5284C14.9352 60.0517 14.1293 44.0083 13.9737 42.1712C13.9634 42.0127 13.7753 40.4001 14.6188 39.1995C15.4943 37.9593 17.144 37.9894 18.9549 37.3326C36.9573 30.8311 63.278 41.3539 58.3337 34.1416C54.3018 28.2658 38.5581 33.7945 17.8481 32.4014C15.2727 32.224 15.2549 30.6251 15.5796 28.1284C16.1535 23.6766 13.594 21.0811 14.0681 18.3997C14.3698 16.7222 16.4136 16.6474 16.9567 16.5296C18.3305 16.2023 21.7138 16.8704 25.0463 16.4416C40.6547 14.3879 1116.33 9.28353 1243.94 4.05193C1257.1 3.51246 1265.76 3.09532 1272.1 2.83168C1276.76 2.64362 1515.12 3.58684 1557.08 3.4538C1587.35 3.36132 1622.42 6.97919 1632.43 9.51167C1634.72 10.0849 1636.07 13.0345 1635.31 15.7681C1635.21 16.1247 1635.13 16.4416 1635.08 16.7058C1634.89 17.8682 1634.84 18.5684 1634.85 19.1234C1634.85 20.3788 1634.95 21.3039 1634.98 21.5551C1635.14 22.7843 1638.62 34.1162 1637.71 39.7565C1637.17 43.0324 1628.86 41.3361 1623.06 41.0327C1598.58 39.7504 1535.49 35.0935 1535.81 39.9966C1536.2 46.1286 1546.11 45.0007 1558.67 45.0281C1595.12 45.1077 1593.82 47.0869 1615.85 45.2983C1623.78 44.6549 1635.08 45.4856 1636.36 47.9594C1637.5 50.1686 1639.96 50.2929 1640.31 51.6811C1641.88 57.9611 1638.64 74.8414 1638.79 81.5015C1638.95 88.9148 1641.67 89.8325 1640.68 98.5251C1640.14 103.188 1609.59 100.254 1609.53 102.078C1609.37 106.848 1639.14 104.693 1642.34 109.06C1645.28 113.057 1646.61 114.078 1647.14 117.699C1647.56 120.568 1644.49 128.991 1645.19 132.917C1646.48 140.307 1648.79 148.187 1646.9 151.976C1643.14 159.526 1547.54 147.689 1542.65 151.167C1541.33 152.102 1533.86 155.032 1534.55 156.276C1536.04 158.961 1615.3 166.032 1639.03 163.93C1640.97 163.763 1642.73 165.365 1643.11 167.731C1645.31 181.399 1652.15 194.298 1647.19 206.787Z" fill="#D38D51"/>
<path d="M1443.63 111.388C1443.55 149.311 1398.2 184.282 1321.45 212.538L293.247 208.601C219.355 180.321 175.929 145.804 176.01 108.621C176.087 73.4586 215.072 40.8394 281.911 13.7515C612.718 11.2231 1155.54 7.66433 1243.9 4.03841C1257.05 3.49893 1265.72 3.08179 1272.06 2.81815C1273.05 2.78067 1284.58 2.79262 1302.53 2.8318C1390.84 32.5708 1443.72 70.359 1443.63 111.388Z" fill="#E0A264"/>
<g opacity="0.45">
<path d="M1645.51 134.437C1541.01 133.43 1437.34 125.235 1336.77 117.286C1213.08 107.515 1085.17 97.4178 953.086 100.195C891.21 101.5 827.816 105.749 766.52 109.87C741.907 111.521 716.443 113.236 691.565 114.714C632.452 118.232 572.398 113.727 514.335 109.359C465.477 105.685 414.958 101.888 365.281 102.902C316.998 103.894 267.918 109.455 220.445 114.835C152.2 122.562 81.8268 130.535 12.3022 125.071C11.3804 123.127 10.9266 121.329 10.8026 119.65C80.5821 125.366 151.403 117.354 220.062 109.562C267.61 104.182 316.765 98.6077 365.207 97.6167C415.055 96.6023 465.658 100.413 514.591 104.087C572.548 108.442 632.474 112.947 691.364 109.428C716.231 107.95 741.685 106.248 766.297 104.584C827.636 100.476 891.062 96.2144 953.023 94.9094C1085.28 92.1325 1213.27 102.243 1337.04 112.014C1437.44 119.937 1540.92 128.131 1645.17 129.151C1645.03 130.393 1644.99 131.529 1645.15 132.428C1645.26 133.102 1645.39 133.763 1645.51 134.437Z" fill="#B26B31"/>
<path d="M1635.21 22.2556C1599.78 19.2316 1561.54 22.2137 1524.19 25.1185C1489.12 27.8565 1456 30.4402 1426.17 28.1551C1330.87 20.8777 1236.17 24.6351 1131.13 29.8895C1090.66 31.9154 1064.02 31.1833 1038.26 30.4664C1010.14 29.6783 983.587 28.9464 940.654 31.5351C927.763 32.313 870.715 30.4046 804.664 28.1858C710.004 25.006 592.185 21.0357 560.407 23.6355C457.867 32.0403 354.527 36.1225 251.26 35.897C172.506 35.7251 93.8112 33.0427 15.526 27.8505C15.5262 27.7712 15.537 27.7052 15.5478 27.6259C15.8077 25.6048 15.4175 23.9522 14.9629 22.5241C196.011 34.5607 379.312 33.1638 560.131 18.3626C592.101 15.75 710.026 19.7205 804.793 22.9005C870.748 25.1191 927.721 27.0406 940.442 26.2623C983.534 23.6607 1010.16 24.3928 1038.36 25.1811C1064.05 25.8979 1090.62 26.6298 1130.96 24.6168C1236.12 19.3494 1330.94 15.5923 1426.44 22.8834C1456 25.1414 1488.99 22.5707 1523.92 19.8456C1561.21 16.9407 1599.4 13.9584 1634.93 16.943C1634.83 17.6828 1634.79 18.198 1634.8 18.6209C1634.82 19.8763 1634.9 20.8014 1634.94 21.0526C1634.96 21.2376 1635.05 21.6606 1635.21 22.2556Z" fill="#B26B31"/>
<path d="M1640.69 55.8837C1640.69 57.4957 1640.6 59.2794 1640.47 61.1687C1585.5 58.4588 1539.64 55.8481 1461.24 49.5325C1413.43 45.6885 1355.29 50.0279 1304.01 53.8669C1289.56 54.9453 1275.93 55.9595 1262.84 56.7898C1204.78 60.4422 1033.28 59.9357 976.12 55.9392C818.54 44.9316 658.066 47.6601 502.883 50.2945L15.1187 58.5851C14.9724 57.3427 14.8276 55.4131 14.6832 53.2986L502.831 45.0088C658.088 42.3746 818.626 39.6463 976.365 50.6674C1032.1 54.5683 1206.01 55.0669 1262.63 51.5038C1275.69 50.6866 1289.33 49.6725 1303.76 48.594C1355.16 44.7421 1413.44 40.3898 1461.52 44.2607C1539.9 50.5763 1585.73 53.187 1640.69 55.8837Z" fill="#B26B31"/>
<path d="M372.043 77.2559C372.036 80.2158 370.021 81.9159 358.116 84.1627C350.641 85.5735 339.621 87.0691 325.344 88.6103C300.325 91.3042 264.992 94.187 220.324 97.1815C142.463 102.403 56.5679 106.576 14.478 108.4C15.6743 106.46 16.8597 104.692 17.4701 102.989C59.2833 101.151 140.196 97.1916 214.778 92.2538C322.372 85.1418 355.081 80.0995 364.666 77.3719C356.4 75.6889 330.188 73.5307 247.609 75.5307C186.818 77.0101 117.083 80.2406 79.6216 82.6827C58.8098 84.0247 37.3832 84.2157 18.0538 84.2793C18.4619 82.6152 19.1678 81.0179 20.2987 79.8311C20.6081 79.5146 20.8322 79.2244 20.9817 78.9869C39.481 78.9084 59.7369 78.6751 79.3989 77.3966C117.286 74.9423 187.628 71.6867 248.748 70.2212C364.975 67.4358 369.434 72.7178 371.122 74.7036C371.717 75.4052 372.045 76.3045 372.043 77.2559Z" fill="#B26B31"/>
<path d="M819.703 62.7333C815.722 62.8039 812.849 62.8505 812.199 62.8358C706.395 59.8431 624.466 60.946 520.738 62.3449L498.087 62.6522C486.294 62.8115 476.018 64.5729 465.782 68.2108C461.723 69.6555 456.375 72.1676 456.853 77.3089C457.612 85.3974 474.835 89.8088 480.21 90.1112C559.348 94.4728 616.16 97.1207 675.616 97.2505C714.168 97.3346 753.84 96.3641 801.402 94.1027C802.041 94.0776 803.946 94.0289 806.863 93.9428C960.356 89.9438 964.136 79.7245 965.56 75.8824L965.945 74.8525L965.607 73.7947C963.44 67.1169 944.423 60.5742 819.725 62.7465L819.703 62.7333ZM806.768 88.6439C803.809 88.7167 801.882 88.7653 801.233 88.8035C680.465 94.539 610.732 91.9951 480.392 84.8129C472.793 84.3999 461.543 79.2615 461.069 76.7763C461.069 76.7631 461.573 75.1785 466.942 73.2742C476.805 69.7677 486.719 68.0715 498.129 67.9246L520.78 67.6173C624.465 66.2184 706.362 65.1286 812.103 68.1079C812.826 68.1359 815.445 68.0888 819.766 68.0057C834.509 67.7472 869.039 67.1487 900.351 68.0363C944.67 69.2827 957.062 72.8114 960.464 74.7613C955.039 78.2115 928.828 85.4483 806.768 88.6306L806.768 88.6439Z" fill="#B26B31"/>
<path d="M1647.36 185.302C1477.71 161.596 1304.74 162.077 1137.1 162.53L14.4275 165.55L14.3423 165.55C12.4806 165.123 11.1407 164.565 10.376 163.81C9.81302 163.267 10.2948 161.986 10.6803 160.917C10.7553 160.706 10.8302 160.494 10.8946 160.27L1137.09 157.245C1304.24 156.79 1476.69 156.321 1645.97 179.775C1646.46 181.626 1646.94 183.464 1647.36 185.302Z" fill="#B26B31"/>
<path d="M1648.9 197.581C1557.81 196.8 1466.15 191.698 1377.18 186.76C1278.25 181.258 1175.94 175.565 1074.88 175.846C986.108 176.075 896.118 178.878 809.099 181.569C722.047 184.273 632.025 187.062 543.201 187.305C446.512 187.556 347.389 185.701 251.523 183.906C171.485 182.41 88.9232 180.856 6.39113 180.49C6.89647 178.166 7.49628 176.449 7.99925 175.208C90.0203 175.586 172.05 177.126 251.588 178.621C347.433 180.416 446.545 182.271 543.202 182.019C631.973 181.777 721.963 178.987 808.993 176.283C896.045 173.592 986.056 170.789 1074.87 170.56C1176.03 170.292 1278.39 175.973 1377.38 181.475C1466.19 186.413 1557.74 191.488 1648.65 192.281C1648.85 194.052 1648.96 195.823 1648.9 197.581Z" fill="#B26B31"/>
<path d="M1534.5 155.8C1534.5 155.8 1534.61 155.919 1534.73 155.985C1385.39 136.711 1219.71 130.072 1042.06 136.239C957.003 139.198 830.194 138.009 737.605 137.146C671.582 136.527 619.428 136.043 611.453 137.333L611.293 137.36L611.133 137.359C411.987 131.731 210.304 138.03 11.5959 156.069C11.717 154.233 11.6784 152.396 11.7352 150.758C210.39 132.732 411.999 126.446 611.081 132.06C619.812 130.758 669.305 131.223 737.637 131.861C830.195 132.724 956.961 133.912 1041.95 130.953C1222.14 124.686 1390.05 131.607 1541.1 151.506C1538.51 152.783 1533.96 154.821 1534.5 155.8Z" fill="#B26B31"/>
<path d="M752.121 206.3L752.025 206.498C751.95 206.445 751.854 206.392 751.769 206.339C751.887 206.326 752.004 206.313 752.121 206.3Z" fill="#B26B31"/>
<path d="M1647.53 205.255C1647.41 205.598 1647.28 205.955 1647.14 206.298C1646.85 207.064 1646.36 207.71 1645.78 208.145C1644.8 208.856 1643.52 209.448 1642.03 209.921L1642.01 209.921C1609.68 206.56 1567.93 206.773 1532.39 206.946C1524.24 206.994 1516.48 207.03 1509.3 207.028C1478.13 206.933 1382.96 204.241 1352.64 202.51C1158.98 191.424 1030.71 195.306 836.527 201.198L824.818 201.543C801.549 202.258 776.172 203.022 752.12 206.3C752.003 206.313 751.886 206.326 751.769 206.339C745.019 207.262 738.364 208.397 731.9 209.784L731.868 209.784L711.783 209.713C713.999 208.978 716.257 208.296 718.568 207.654C725.001 205.857 731.667 204.379 738.492 203.125C712.517 200.042 658.783 201.828 629.947 202.782C619.419 203.143 611.808 203.39 608.317 203.343L213.939 198.663C182.455 198.291 149.896 197.902 117.97 200.119C80.7748 202.693 42.4935 205.332 5.03327 202.462C5.19608 201.022 5.6895 199.279 6.16227 197.245C43.1012 200.008 80.946 197.382 117.737 194.833C149.812 192.617 182.435 193.005 213.982 193.378L608.36 198.058C611.766 198.105 619.739 197.845 629.831 197.497C681.883 195.773 738.086 194.496 752.398 200.949C776.396 197.737 801.592 196.96 824.712 196.27L836.432 195.913C1030.7 190.021 1159.04 186.125 1352.84 197.225C1382.94 198.942 1477.01 201.672 1508.73 201.741L1509.32 201.742C1516.48 201.758 1524.23 201.709 1532.37 201.66C1569.89 201.478 1614.31 201.245 1647.53 205.255Z" fill="#B26B31"/>
<path d="M1646.64 121.517C1586.47 115.016 1523.72 110.4 1451.09 107.096C1428.07 106.055 1403.53 104.389 1379.78 102.792C1339.1 100.047 1297.02 97.2064 1258.15 97.0291C1257.86 97.0284 1227.46 96.7507 1197.55 94.2936C1145.15 89.9904 1138.09 82.9981 1138.11 76.7216C1138.11 75.757 1138.44 74.8327 1139.05 74.1337C1140.63 72.274 1143.57 68.8052 1204.73 71.0926C1235.63 72.2568 1273.35 74.5723 1305.8 76.6384L1314.65 75.006C1355.38 67.5101 1397.5 59.7663 1438.29 60.6085C1461.97 61.1095 1485.9 64.1216 1509.04 67.0395C1521.76 68.6398 1534.93 70.2938 1547.88 71.5113C1578.17 74.3524 1608.89 74.9348 1639.26 73.2436C1639.05 75.1988 1638.89 77.0088 1638.8 78.5546C1608.47 80.2194 1577.8 79.6107 1547.56 76.783C1534.55 75.5653 1521.36 73.898 1508.6 72.2977C1485.55 69.3932 1461.73 66.3945 1438.21 65.8939C1401.81 65.1405 1364.17 71.3217 1327.42 78.0202C1356.47 79.8675 1378.69 81.2109 1384.47 80.8668C1439.55 77.6307 1477.37 80.6468 1513.95 83.5544C1551.42 86.5432 1586.91 89.3692 1639.34 86.048C1639.76 87.8857 1640.29 89.3668 1640.6 91.257C1587.36 94.6954 1551.5 91.8422 1513.68 88.8261C1477.21 85.9187 1439.51 82.9162 1384.67 86.1528C1378.04 86.5347 1351.19 84.8244 1317.21 82.6624C1260.04 79.0095 1154.98 72.3053 1142.75 77.5377C1144.36 79.6423 1152.89 85.3297 1197.83 89.0219C1227.62 91.4655 1257.88 91.7429 1258.17 91.7436C1297.15 91.9212 1339.28 94.7616 1380.02 97.5065C1403.74 99.1176 1428.27 100.77 1451.25 101.811C1523.91 105.115 1586.71 109.745 1646.93 116.245C1646.99 116.549 1647.04 116.866 1647.1 117.21C1647.23 118.162 1646.99 119.707 1646.64 121.517Z" fill="#B26B31"/>
</g>
</g>
<defs>
<clipPath id="clip0_64_329">
<rect width="1661" height="43" fill="white" transform="translate(0 1047)"/>
</clipPath>
<clipPath id="clip1_64_329">
<rect width="41.38" height="999.17" fill="white" transform="translate(1568 163)"/>
</clipPath>
<clipPath id="clip2_64_329">
<rect width="41.38" height="998.75" fill="white" transform="translate(52 163)"/>
</clipPath>
<clipPath id="clip3_64_329">
<rect width="1644" height="216.02" fill="white" transform="translate(5.37988) rotate(0.125081)"/>
</clipPath>
</defs>
</svg>
