<?xml version="1.0" encoding="UTF-8"?>
<svg id="Lag_4" data-name="Lag 4" xmlns="http://www.w3.org/2000/svg" viewBox="0 0 495.92 165.8">
  <defs>
    <style>
      .cls-1 {
        fill: #8f4822;
      }

      .cls-2 {
        fill: #e0a264;
      }

      .cls-3 {
        fill: #d38d51;
      }

      .cls-4 {
        opacity: .45;
      }

      .cls-5 {
        fill: #b26b31;
      }
    </style>
  </defs>
  <path class="cls-1" d="M494.74,144.72c.18,3.04.26,6.65-.04,9.85-.06.63-.13,1.26-.22,1.85-.07.45-.17.86-.3,1.17-.04.09-.07.16-.11.23-1.7,3.18-6.44,3.07-8.71,3.71-1.94.55-11.96,2.16-16.87,1.98-11.62-.42-19.83-.1-45.31-.22-7.13-.03-29.4.7-33.76.67-39.75-.29-110.78-.33-150.53.31-33.53.54-97.81.93-145.23.4-13.83-.15-26.23-.38-36-.72-12.31-.41-36.37-.75-41.59-.89-2.5-.06-13.84-1.21-14.63-4.7-.32-1.42-.47-3.71-.08-6.7.12-.91.29-1.89.53-2.93.01-.02.01-.05.01-.07.32-1.51-.22-3.09-.47-5.19-.09-.69.39-3.97.96-4.55s18.87.78,18.75.16c-.18-.94-18.68-.73-19.02-1.25-.47-.72-.09-1.38.01-2,.16-1.14.31-1.82.35-2.18.46-3.34.86-5.79.41-6.91-.02-.05-.06-.61-.04-1.4.01-.9.1-2.07.4-3,.01-.03.56-3.19.57-3.22.42-1.27.95-.89.94-1.16-.02-.35-.63.36-1.07-1.38-.22-.88-.26-1.64-.23-2.89,0-.32,0-.58.02-.77.05-.87.09-1.64.13-2.26.06-.86.1-1.43.12-1.57.25-1.81-.28-9.55.66-11.67.69-1.58,22.29.04,20.93-1.24-.99-.93-17.31-.95-20.11-2.11-1.45-.6-.98-3.37-.98-5-.01-1.07-.01-2.1,0-3.02v-1.24c0-1.16.11-3.06.14-5.66.02-1.26.08-2.95.16-4.68.04-1.04.09-2.1.13-3.07.04-1.08.08-2.07.1-2.84.03-1-.1-2.41-.06-3.21,0-.08.01-.17.01-.25.05-1.15.11-2.18.18-3.05.12-1.55.27-2.62.44-3.01.72-1.61.07-1.46-.15-2.23-.09-.31-.14-.68-.17-1.05-.07-1.07.06-2.29.15-3.04.03-.18-.18-2.59.01-3.03.23-.53,2.24-.41,2.2-.81-.04-.49-2.39-.04-2.52-.33-.17-.41-.58-1.27-.78-1.76-.35-.86-.27-1.57-.27-3.34,0-1.3.16-3.39.3-4.76.1-.92.15-1.16.29-1.97s-.35-1.19-.33-1.91c.03-.82.28-2.61.26-3.26-.02-.75,1.46-.31,1.37-.94-.13-.98-1.49.04-1.37-.96.29-2.59.17-2.88.14-3.1-.07-.53.02-3.71.44-4.83.21-.56,10.27.19,10.32-.37.1-1.04-9.8-.23-10.16-.75-.2-.29-.57-2.63-.36-3.13.41-.99,4.24-.26,4.21-.78-.04-.71-4.59.11-4.62-.83-.01-.28-.4-.08-.41-.35-.23-6.57-2.59-7.71,15.16-8.92,2.96-.2,21.28-3.25,51.2-3.67,2.72-.04,40.63.86,43.09.85,91.82-.29,164.6-.7,209.44-1.96,13.91-.39,50.51.2,74.4.67,30.27.6,62.99-1.81,70.03-1.92,5.75-.08,9.13.35,13.76,1.62,0,0,4.17,1.27,4.18,1.27,2.28.62,2.99,1.64,4.17,2.26.21.11.4.21.58.32.69.44,1.09,2.68.87,4.78-.03.27-.05.51-.07.72-.06.89-.39,1.44-.03,2.06.13.23.08,2.48-.43,3.81-.39,1-11.58-.39-11.64,1.04-.11,1.05,13.09.37,12.94,2.7-.07,1.09.61,2.92.84,5.41.3,3.23-.16,7.88-.22,8.15-.26,1.09-5.79.2-5.68,1.25,0,0,6.2-.36,6.17.71-.08,2.34-.26,10.5-.37,12.99-.05,1.05-.09,2.08-.14,3.06-.16,3.57-.29,6.66-.28,8.22,0,.16,0,.32.01.47.02,1.21.08,2.18.15,3.04.21,2.5.54,4.06.47,7.68-.01.54-.02,1.14-.05,1.79-.02.45-.04.86-.06,1.24-.12,2.07-9.88,1.16-9.84,2.01.03.56,10.04-1.23,11.26,1.06.83,1.56.35,7.67.51,9.3.03.31.05.64.07,1.01.03.48.01,1.19-.04,2.01-.09,1.36-.24,3.07-.37,4.74-.14,1.84-.89,2.97.13,4.92,2.14,4.14,1,10.23.17,12.92-.29.94-12.17.51-12.2,1.19-.03.75,11.51-.83,11.66,1.12.33,4.47-.21,9.76-.51,11.25-.43,2.12-11.45,1.26-11.34,2.11.07.54,11.06-1.06,11.64,1.24.44,1.75.69,4.53.38,4.99-.97,1.43.15,2.72.2,3.09.07.58.23,1.88.39,3.6.08.91.16,1.93.23,3.03Z"/>
  <path class="cls-3" d="M423.61,113.07c-.18.47.76.83,2.53,1.1,12.34,1.93,65.37-.36,65.49,1.33.08,1.12.1,2.17.07,3.13-.03,1.13-.11,2.15-.22,3.03-.16,1.36-.37,2.4-.5,3.07-.43,2.1-39.51.56-39.51,1.77.04,5.29,39.74,1.44,40.31,3.72.44,1.73.19,2.33-.12,2.79-.61.91-.38,1.76-.12,2.35.14.34.3.59.32.72.05.42.15,1.22.26,2.27.04.4.09.83.13,1.3.08.9.16,1.92.23,3.01.02.42.05.85.06,1.29.05.97.08,1.98.09,3,.03,1.84-.02,3.73-.19,5.49-.06.63-.13,1.25-.22,1.84-.07.45-.17.85-.3,1.16-.04.09-.07.16-.11.23-1.69,3.16-6.38,3.05-8.63,3.68-1.92.55-11.86,2.15-16.73,1.97-11.52-.42-19.65-.1-44.91-.22-3.82-.02-12,.19-19.41.37-6.32.16-12.07.3-14.06.29-39.41-.29-109.82-.33-149.23.31-33.24.54-96.97.92-143.98.4-3.13-.03-6.19-.07-9.16-.12-10.03-.14-19.05-.34-26.53-.59-12.2-.41-36.06-.74-41.23-.88-2.48-.06-13.72-1.2-14.5-4.67-.08-.35-.15-.76-.2-1.22-.1-.84-.14-1.84-.09-3,.03-.75.1-1.56.21-2.43.12-.9.29-1.88.53-2.91.01-.02.01-.05.01-.07.32-1.5-.22-3.07-.47-5.15-.09-.68.01-1.78.58-2.35.55-.55,30.72.94,30.44-.85-.14-.94-30-1.87-30.33-2.39-.47-.71-.09-1.37.01-1.99.16-1.13.31-1.81.35-2.16.15-1.09.29-2.08.4-2.96.15-1.22.24-2.23.18-2.99-.02-.36-.07-.67-.17-.91-.02-.05-.06-.61-.04-1.39,0-.89.1-2.05.4-2.98.01-.03.44-1.32.45-1.35.42-1.26,5.86-.51,5.88-1.03,0-.61-5.47-.29-5.91-2.01-.22-.87-.25-2.95-.22-4.19v-.11c0-.27.01-.49.02-.65.05-.86.09-1.63.13-2.24,0-.04,0-.07,0-.11.05-.79.09-1.32.11-1.45.09-.65.06-1.8.02-3.09-.02-.96-.04-2.01-.02-3,.04-1.33.16-2.56.5-3.33.68-1.56,51.32,1.25,47.91-1.89-4.26-3.94-44.32-3.57-47.09-4.71-1.44-.59-.82-2.23-.82-3.85,0-.27,0-.54-.01-.81,0-.77,0-1.51.01-2.19v-1.23c.01-1.15.11-3.04.14-5.62.01-.55.03-1.19.05-1.89.03-.86.07-1.8.11-2.76,0-.09.01-.18.01-.27.04-.94.08-1.9.12-2.78.04-1.07.08-2.05.1-2.82v-.12c.02-.95-.09-2.23-.06-3v-.07c0-.08.01-.17.01-.25.05-1.14.11-2.16.18-3.03.06-.72.12-1.33.19-1.82.07-.56.16-.96.25-1.17.57-1.28.27-1.44.02-1.85-.06-.1-.13-.21-.17-.36-.09-.31-.14-.67-.17-1.04-.07-1.06.06-2.27.15-3.02.03-.18-.15-1.29-.14-1.41.12-1.09,19.02-.14,19.16-2.59.05-.87-19.16.48-19.29.2-.17-.41-.37-.78-.57-1.27-.35-.85-.5-2.37-.5-4.13,0-.38.01-.82.04-1.29.04-1,.12-2.12.21-3.03.01-.15.03-.28.04-.41.1-.91.15-1.15.29-1.96.15-.78-.34-1.19-.32-1.9.03-.82.04-1.56.02-2.2-.02-.74,6.55-.44,6.47-1.08-.13-.97-6.66.08-6.54-.91.11-.93.2-1.69.27-2.28.13-1.04.2-1.59.18-1.73-.04-.23-.15-.71-.23-1.28-.11-.72-.16-1.58.07-2.21.21-.55,33.37.73,32.73-1.99-.24-1.01-32.25,0-32.62-.52-.2-.29-.39-2-.3-2.15.56-.89,13.76-.17,13.71-.69-.13-1.14-13.93-.37-13.96-1.3-.01-.28.02-.55.01-.82,0-.1-.01-.21-.01-.31-.05-1.17-.17-2.15-.21-2.99-.15-3.67,1.17-4.59,15.25-5.55,2.93-.2,21.1-3.22,50.76-3.64,1.04-.02,7.26.11,14.64.27,11.79.24,26.57.58,28.07.57,91.03-.29,163.18-.69,207.63-1.94,13.79-.39,50.07.2,73.76.66,1.45.03,2.9.05,4.36.07,28.73.4,58.49-.9,65.13-1,5.7-.08,11.99.97,16.58,2.23h.01c2.26.62,4.11,1.29,5.28,1.9.21.11.4.21.57.32.45.3.78,1.38.88,2.69.06.65.05,1.36-.02,2.05-.03.27-.05.51-.07.71-.01.08-.01.16-.03.24-.09.74-.33,1.25,0,1.8.13.23.46,1.48-.05,2.79-.38.99-36.08-.95-36.08,1.53-.16,2.58,37.19,1.76,37.04,4.07-.05.74.23,1.4.48,2.54.11.52.23,1.15.3,1.93.03.35.06.7.08,1.05.18,2.89.01,5.72-.04,5.96-.26,1.09-13.18,1.69-13.02,3.18.11.92,13.24-.15,13.21.91-.04,1.28-.11,3.99-.17,6.59-.03,1.05-.06,2.09-.09,3-.02.9-.05,1.69-.07,2.24-.05,1.04-.09,2.06-.14,3.04-.05,1.2-.1,2.35-.14,3.4-.05,1.13-.09,2.15-.12,3.01-.01.7-.02,1.29-.02,1.75,0,.16,0,.32.01.47.02,1.2.08,2.16.15,3.02.09,1.03.2,1.9.28,2.83.1.88.17,1.82.19,3,.01.54.01,1.13,0,1.79-.01.54-.02,1.13-.05,1.78-.02.45-.04.85-.06,1.23-.12,2.05-30.14,1.1-30.32,2.93-.05.48.49.82,1.45,1.05,1.69.42,4.7.51,8.19.46,9.05-.13,21.32-1.17,22.07.25.2.36.32.89.39,1.5.12.9.13,1.99.12,3.03-.01,1.23-.05,2.38.02,3.05.03.31.05.64.07,1,.02.37.02.88-.01,1.48-.01.17-.02.34-.03.52-.05.74-.12,1.59-.19,2.49-.06.72-.12,1.48-.18,2.22-.09,1.1-.38,1.94-.39,2.86-.01.61.12,1.25.52,2.02.16.31.3.62.43.93,1.62,3.92,1.14,8.42.37,10.88-.25.82-52.13-1.55-65.81,1.33-1.86.39-3.01.88-3.24,1.48Z"/>
  <path class="cls-2" d="M430.87,82.1c0,9.6-1.42,19.6-4.02,29.49-.22.86-.46,1.72-.71,2.58-4.87,17.17-13.28,33.85-24.01,47.3-6.32.16-12.07.3-14.06.29-39.41-.29-109.82-.33-149.23.31-33.24.54-96.97.92-143.98.4-3.13-.03-6.19-.07-9.16-.12-17.65-22.33-26.72-52.72-26.72-80.25S68.26,24.58,86.31,2.18c11.79.24,26.57.58,28.07.57,91.03-.29,163.18-.69,207.63-1.94,13.79-.39,50.07.2,73.76.66,1.45.03,2.9.05,4.36.07,18.82,22.77,30.74,52.39,30.74,80.56Z"/>
  <g class="cls-4">
    <path class="cls-5" d="M488.56,9.73c-.03.27-.05.51-.07.71-.01.08-.01.16-.03.24-131.03-4.06-263.7-1.81-392.32.37-29.63.51-60.11,1.02-90.27,3.04-.05-1.17-.17-2.15-.21-2.99,30.23-2.03,60.75-2.54,90.42-3.05,128.67-2.18,261.38-4.43,392.5-.37.06.65.05,1.36-.02,2.05Z"/>
    <path class="cls-5" d="M213.2,100.73c0,.48-.16,1.19-.86,1.86-3.07,2.95-18.69,3.93-44.72,3.93-18.06,0-41.13-.47-68.5-1.08-31.21-.7-64.9-1.45-93.38-1.21-.02-.96-.04-2.01-.02-3,28.54-.24,62.24.51,93.47,1.21,28.61.63,55.63,1.24,76.04,1.05,26.45-.23,33.08-1.84,34.67-2.78-5.63-3.79-51.81-8.13-71.88-10.02-7.69-.72-13.77-1.29-17.21-1.71-42.63-5.19-73.2-5.91-114.6-2.34,0-.77,0-1.51.01-2.19v-.83c41.48-3.56,72.19-2.83,114.95,2.38,3.4.42,9.46.99,17.13,1.71,69.79,6.56,74.97,9.42,74.9,13.02Z"/>
    <path class="cls-5" d="M491.7,118.63c-.03,1.13-.11,2.15-.22,3.03-18.82,1.38-35.29,1.32-52.55,1.25-14-.05-28.48-.1-44.85.64-.63.03-1.63.08-2.94.16-12.56.69-23.12,1.05-31.77,1.05-17.24,0-26.93-1.4-29.92-4.23-1.01-.96-1.23-1.97-1.23-2.65,0-3.24,4.3-7.15,36.17-11.57,18.46-2.56,37.66-4.05,42.56-4.24,19.89-.78,36.38-2.06,53.84-3.4,9.65-.75,19.57-1.52,30.55-2.24-.01.61.12,1.25.52,2.02.16.31.3.62.43.93-11.26.73-21.41,1.52-31.27,2.28-17.49,1.35-34.01,2.62-53.95,3.4-4.83.19-23.82,1.67-42.14,4.2-33.17,4.6-33.71,8.58-33.71,8.62,0,.05,0,.2.29.47,2.58,2.44,14.99,4.83,59.47,2.36,1.31-.07,2.33-.13,2.97-.16,16.44-.74,30.95-.69,44.99-.64,17.34.07,33.87.13,52.76-1.28Z"/>
    <path class="cls-5" d="M490.23,26.39l-73.67,2.52c-11.48.39-23.26.8-35.01.8-3.24,0-6.48-.03-9.71-.1-16.16-.35-32.52-1.7-48.34-3.01-6.54-.54-13.3-1.1-19.94-1.57-34.6-2.49-69.71-3.12-104.37-1.85-17.1.63-34.19,1.51-50.71,2.37-48.11,2.48-93.71,4.84-142.19,1.54.13-1.04.2-1.59.18-1.73-.04-.23-.15-.71-.23-1.28,48.4,3.31,93.98.96,142.09-1.53,16.53-.85,33.62-1.74,50.75-2.37,34.76-1.27,69.99-.64,104.69,1.85,6.66.48,13.43,1.04,19.97,1.58,15.78,1.3,32.09,2.65,48.16,3,14.85.32,29.95-.2,44.56-.7l73.39-2.5c.11.52.23,1.15.3,1.93.03.35.06.7.08,1.05Z"/>
    <path class="cls-5" d="M490.21,43.03c-.03,1.05-.06,2.09-.09,3-13.5-.42-26.69-.64-39.61-.86-18.77-.32-38.17-.66-58.32-1.54-25.63-1.12-56.58-3.97-78.03-6.17-23.27-2.38-46.59-2.23-69.14-2.07-11.76.08-23.92.16-36.06-.1-67.48-1.5-135.75.38-203.11,5.57.04-1,.12-2.12.21-3.03,67.32-5.17,135.54-7.04,202.96-5.54,12.1.26,24.24.18,35.98.1,22.63-.16,46.03-.31,69.46,2.09,21.41,2.19,52.3,5.04,77.86,6.15,20.11.88,39.49,1.22,58.24,1.54,12.93.22,26.13.44,39.65.86Z"/>
    <path class="cls-5" d="M492.63,146.95c-50.85,2.65-99.2,1.92-150.01,1.17-13.99-.2-28.45-.42-42.97-.56-12.06-.12-27.03-1.32-42.88-2.59-21.29-1.7-43.31-3.47-59.54-2.65-70.29,3.56-130.84,7.97-193.99,12.67-.1-.84-.14-1.84-.09-3,63.12-4.7,123.65-9.1,193.93-12.66,16.42-.83,38.54.94,59.93,2.65,15.8,1.27,30.72,2.47,42.67,2.58,14.53.14,28.99.36,42.98.56,50.79.75,99.1,1.48,149.88-1.17.05.97.08,1.98.09,3Z"/>
    <path class="cls-5" d="M492.12,138.35c-6.78.09-13.57.14-20.37.14-47.54,0-95.42-2.27-141.96-4.49-59.2-2.81-120.42-5.72-180.62-3.92-6.24.18-12.59.42-18.72.66-13.99.53-28.45,1.07-42.7,1.02-30.13-.11-55.3-.69-82.87-3.03.15-1.22.24-2.23.18-2.99,27.5,2.33,52.61,2.91,82.7,3.02,14.18.04,28.62-.49,42.57-1.02,6.15-.24,12.5-.48,18.75-.66,60.31-1.8,121.59,1.11,180.85,3.93,52.97,2.51,107.68,5.12,161.61,4.35.14.34.3.59.32.72.05.42.15,1.22.26,2.27Z"/>
    <path class="cls-5" d="M492.05,82.81c-35.16-3.36-70.71-3.97-105.91-1.82-18.18,1.11-34.51,2.85-50.3,4.53-22.55,2.4-44.24,4.71-68.07,4.71-10.99,0-22.44-.49-34.63-1.69-17.37-1.7-51.07-6.66-73.38-9.94-3.85-.56-7.36-1.08-10.36-1.51-45.21-6.58-94.35-7.04-142.99-1.38.03-.86.07-1.8.11-2.76,0-.09.01-.18.01-.27,48.74-5.64,97.98-5.15,143.3,1.44,3,.43,6.51.95,10.37,1.52,22.27,3.27,55.93,8.22,73.23,9.92,38.35,3.77,69.31.47,102.09-3.02,15.83-1.69,32.19-3.43,50.43-4.55,25.03-1.53,50.22-1.67,75.33-.42,2.73.13,5.46.28,8.19.46,7.5.45,14.99,1.04,22.46,1.75.12.9.13,1.99.12,3.03Z"/>
    <path class="cls-5" d="M492.13,88.34c-.01.17-.02.34-.03.52-.05.74-.12,1.59-.19,2.49-12.52.4-24.85.65-36.85.89-57.34,1.16-111.49,2.26-172.17,18.75-19.53,5.31-72.11,5.94-96.04,5.94-2.66,0-4.97,0-6.84-.01-30.16-.17-61.82-1.42-92.45-2.63-27.15-1.07-55.12-2.18-82.11-2.52,0-.27.01-.49.02-.65.05-.86.09-1.63.13-2.24,0-.04,0-.07,0-.11,27,.35,54.94,1.46,82.07,2.52,30.6,1.21,62.24,2.46,92.35,2.63,13.2.07,80.18.12,102.07-5.82,61.04-16.59,115.37-17.69,172.9-18.86,12.08-.24,24.52-.49,37.13-.9Z"/>
    <path class="cls-5" d="M490.26,68.79c-13.1.7-26.25.99-39.43.99-34.93,0-69.98-2.06-104.3-4.08-30.71-1.81-62.47-3.69-93.37-4.01-96.5-1.02-175.02.65-246.41,5.27.02-.95-.09-2.23-.06-3,71.43-4.61,149.99-6.29,246.51-5.27,30.96.33,62.76,2.2,93.51,4.01,47.17,2.78,95.74,5.64,143.36,3.09.1.88.17,1.82.19,3Z"/>
    <path class="cls-5" d="M489.77,54.71c-.05,1.13-.09,2.15-.12,3.01-42.31.27-84.72-2.61-126.12-5.42-41.77-2.83-84.95-5.76-127.42-5.41-27.64.23-55.7,1.86-82.83,3.43L7.07,58.79c.07-.56.16-.96.25-1.17.57-1.28.27-1.44.02-1.85l145.77-8.45c27.17-1.57,55.26-3.2,82.97-3.43,42.58-.35,85.83,2.58,127.65,5.42,41.39,2.81,83.78,5.69,126.04,5.4Z"/>
  </g>
</svg>