<?xml version="1.0" encoding="UTF-8"?>
<svg id="Lag_4" data-name="Lag 4" xmlns="http://www.w3.org/2000/svg" viewBox="0 0 495.85 168.94">
  <defs>
    <style>
      .cls-1 {
        fill: #8f4822;
      }

      .cls-2 {
        fill: #e0a264;
      }

      .cls-3 {
        fill: #d38d51;
      }

      .cls-4 {
        opacity: .45;
      }

      .cls-5 {
        fill: #b26b31;
      }
    </style>
  </defs>
  <path class="cls-1" d="M494.36,158.28c-.09.58-.23,1.07-.41,1.4-1.7,3.16-7.31,4.47-9.58,5.11-1.93.54-13.26-.08-18.17-.33-8.13-.42-58.19.15-78.11,0-39.73-.3-109.39,2.33-149.12,2.97-43.29.7-137.89,1.28-181.16-.17-12.3-.41-39.7-2.83-44.92-2.97-2.5-.07-10.52-.61-11.31-4.08-.42-1.84-.55-5.15.46-9.56.46-2.02-.67-4.14-.6-7.46,0-.34.87-3.83.9-4.2.06-.85,2.23-.76,2.23-.76,0,0-2.38.23-2.29-.38.17-1.13.74-3.34.78-3.69.25-2.15,12.01-1.94,12.01-1.94-1.77-.3-11.65-1.08-12.1-2.19-.04-.1-.12-3.9.47-5.65.42-1.25,1.64-1.68,1.66-2.2.03-.6-.83-.37-1.28-2.09-.28-1.09-.24-4.11-.19-4.96.12-2.05.18-4.5.22-4.73.26-1.81,18.06-1.43,18.06-1.43,0,0-17.98.64-17.89-1.65.03-.78.57-16.83.59-21.55,0-1.15,3.31-.29,3.06-1.28-.1-.38-2.87-.15-2.96-.84-.35-2.82.18-10.93.24-13.54.02-.99,1.89-.73,1.72-1.31-.11-.37-1.85-.1-1.81-.89.15-3.3.5-6.28.62-6.95.17-.95,3.09-.61,3.09-1.06s-3,.28-3.22-.47c-.41-1.43.16-4.99.21-5.78.08-1.49,12.66-1.41,12.06-2.44-.4-.67-12.56.46-13.13-.92-1.12-2.7-.76-5.51-.86-9.53-.05-2.09,1.19-12.78,1.11-13.25-.17-1.02,2.14-.48,2.25-1.17.09-.5-2.31.04-2.48-.57-.92-3.25-.6-5.33-.46-7.36.09-1.27-2.6-7.65,15.15-8.85,3.22-.22,53.87-2.67,83.45-2.76,91.77-.29,190.73-2.72,235.55-3.97,31.52-.88,116.37,1.9,128.97,1.73,9.09-.12,19.61,2.56,22.62,4.46.69.43.49,4.42.48,4.62-.06.88-1.26.55-1.19,1.17.05.46.79.26,1.16.87.48.8,1.43,11.96,1.16,16.22-.16,2.48-7.71,1.06-7.68,2.19.02.96,7.83.2,8.59.94.88.85-.6,23.42-.56,28.47.05,5.61.87,6.3.58,12.88-.13,2.86-.6,4.55-.17,6.69.1.5-1.16.18-1.14.74.02.53,1.45.1,1.57.5.61,2,1.56,4.29,1.69,6.58.08,1.28-.2,5.67-.47,8.33-.1.91-5.24-.73-5.33.66-.04.7,5.12,0,5.49.74,2.16,4.32.74,13.76.26,16.22-1.13,5.72-1.24,10.13-1.13,11.92.11,1.77,1.45,6.85.83,7.76-.96,1.41-4.32,1.15-4.2,1.85.16.94,3.74-.39,4.02.39.64,1.81,1.65,12.87.6,19.56Z"/>
  <path class="cls-3" d="M491.9,145.66c.18,3.02.26,6.6-.04,9.78-.06.63-.13,1.25-.22,1.84-.07.45-.17.85-.3,1.16-.04.09-.07.16-.11.23-1.69,3.16-6.38,3.05-8.63,3.68-1.92.55-10.75.87-15.56.11,0,0-36.19-.11-61.45-.23-7.07-.03-13.29-.07-17.61-.1-39.41-.29-110.31,2.3-149.72,2.94-33.24.54-96.97.92-143.98.4-13.71-.15-26-.38-35.69-.71-12.2-.41-41.78-2.7-46.95-2.84-2.48-.06-8,.76-8.78-2.71-.32-1.41-.47-3.68-.08-6.65.12-.9.29-1.88.53-2.91.01-.02.01-.05.01-.07.32-1.5-.22-3.07-.47-5.15-.09-.68-.15-1.43-.13-2.24,0-.1.07-.39.17-.77.23-.92.64-2.32.65-2.58.07-.85,4.53-.95,4.5-1.63-.04-1.11-4.59.26-4.49-.36.16-1.13.31-1.81.35-2.16.46-3.32,12.11-1.91,11.81-3.39-.8-3.91-10.96-2.36-11.4-3.47-.02-.05-.06-.61-.04-1.39.01-.89.1-2.05.4-2.98.01-.03.02-.06.03-.09.42-1.26,1.63-1.68,1.65-2.2.03-.61-.82-.38-1.26-2.1-.22-.87-.25-2.95-.22-4.19,0-.32,0-.58.02-.76.05-.86.09-1.63.13-2.24.06-.85.1-1.42.12-1.56.25-1.8,56.26-4.05,55.98-7.92-.33-4.63-55.56.8-55.48-1.5,0-.23,0-1.2,0-2.58v-2.99c0-1.56,0-3.26,0-4.88-.01-1.06-.01-2.08,0-3v-1.23c0-1.15,8.58-.01,8.58-2.81,0-2.43-8.47-.23-8.44-2.81.02-1.25.08-2.93.16-4.65.04-1.03.09-2.08.13-3.05.04-1.07.08-2.05.1-2.82.03-.99,2.61-1.06,2.64-1.98.03-.89-2.74-.41-2.7-1.21,0-.08.01-.17.01-.25.05-1.14.11-2.16.18-3.03.12-1.54.27-2.6.44-2.99.71-1.6,29.56,1.04,29.56-.61,0-1.55-29.49-.84-29.71-1.6-.09-.31-.14-.67-.17-1.04-.07-1.06.06-2.27.15-3.02.03-.18.05-.33.06-.45.29-2.74,45.74-2.93,45.74-4.13-.11-2.75-46.07.89-46.64-.49-1.11-2.7-.86-5.56-.96-9.58-.02-.74.13-2.42.33-4.32.1-.98.22-2.02.34-3.01.29-2.57.56-4.84.53-5.06-.17-1.01,32.94-2.39,33.19-3.3.26-.94-33.5,2.64-33.4.75.06-1.37-.02-2.5-.14-3.5-.13-1.14-.3-2.11-.33-3.04-.01-.28-.01-.55.01-.82.09-1.27-2.57-7.65,15.03-8.85,2.93-.2,45.39-2.28,75.05-2.7,2.7-.04,5.29-.06,7.73-.07,91.03-.29,189.19-2.72,233.64-3.97,13.79-.39,37.87-.06,61.56.4,30.01.6,59.39,1.43,66.37,1.33,5.7-.08,11.99.97,16.58,2.23h.01c2.26.62,4.11,1.29,5.28,1.9.21.11.4.21.57.32.68.44,1.08,2.66.86,4.74-.03.27-.05.51-.07.71-.06.88-7.08-.69-7.08.91,0,.69,6.69.52,7.05,1.13.13.23.28,1.21.41,2.61.08.87.16,1.89.23,2.99.21,3.39.33,7.48.18,9.79-.15,2.48-63.75.92-63.37,2.79.34,1.67,63.53.95,64.28,1.69.27.26.32,2.48.25,5.56-.02.93-.05,1.94-.08,3-.08,2.32-.2,4.88-.31,7.36-.05,1.04-.09,2.06-.14,3.04-.16,3.54-.29,6.61-.28,8.16,0,.16,0,.32.01.47.02,1.2.08,2.16.15,3.02.21,2.48.54,4.03.47,7.62-.01.54-.02,1.13-.05,1.78-.02.45-.04.85-.06,1.23-.12,2.05-.22,3.25.14,5.05.1.51-13.68.08-13.6,1.4.09,1.41,14.3,1.22,14.41,1.61.51,1.68.81,2.6.97,4.21.03.31.05.64.07,1,.03.48.01,1.18-.04,2-.09,1.35-.24,3.05-.37,4.71-.14,1.83-36.21-1.58-37.58,2.98-.49,1.66,36.7-.03,37.71,1.9,2.12,4.11.84,11.28.3,14.02-.02.12-.04.23-.06.33-.18.94-.34,1.84-.47,2.7-.68,4.4-.75,7.73-.65,9.23.02.33.08.79.15,1.33.13.88.3,1.98.44,3.05.25,1.77.4,3.44.09,3.9-.96,1.42-29.67,1.79-29.53,3.07.18,1.66,29.68-.37,29.73,0,.07.58.23,1.87.39,3.57.08.9.16,1.92.23,3.01Z"/>
  <path class="cls-2" d="M434.49,86.27c0,27.94-10.6,54-28.9,75.96-7.07-.03-13.29-.07-17.61-.1-39.41-.29-110.31,2.3-149.72,2.94-33.24.54-96.97.92-143.98.4-20-22.61-31.68-49.87-31.68-79.2S74.7,28.7,95.38,5.85c2.7-.04,5.29-.06,7.73-.07,91.03-.29,189.19-2.72,233.64-3.97,13.79-.39,37.87-.06,61.56.4,22.74,23.52,36.18,52.59,36.18,84.06Z"/>
  <g class="cls-4">
    <path class="cls-5" d="M486.55,7.67c-45.3,10.27-93.78,13.79-144.27,10.44-10.35-.68-20.84-1.67-30.98-2.62-13.78-1.29-28.02-2.63-42.07-3.23-41.07-1.77-83.13,1.66-123.8,4.97-33.07,2.69-66.91,5.44-100.59,5.44-13.12,0-26.21-.41-39.22-1.41-.13-1.14-.3-2.11-.33-3.04,46.37,3.63,93.88-.24,139.89-3.98,40.77-3.32,82.92-6.75,124.17-4.98,14.13.61,28.42,1.95,42.23,3.24,10.12.95,20.59,1.93,30.9,2.62,48.49,3.22,95.1.07,138.78-9.35h.01c2.26.62,4.11,1.29,5.28,1.9Z"/>
    <path class="cls-5" d="M488.52,21.08c-44.96,5.09-90.68,7.68-136,7.72-11.23-.01-22.68-.14-33.74-.29-27.76-.36-56.47-.74-84.55,1.36-11.41.85-22.97,2.12-34.16,3.36-13.94,1.53-28.35,3.13-42.62,3.91-8.56.47-17.16.66-25.77.66-17.25,0-34.51-.75-51.38-1.49-24.67-1.08-50.16-2.19-75.2-.93.1-.98.22-2.02.34-3.01,25.03-1.24,50.4-.13,74.99.94,25.22,1.1,51.3,2.24,76.85.84,14.2-.79,28.56-2.37,42.46-3.91,11.21-1.23,22.81-2.51,34.27-3.37,28.21-2.1,56.98-1.72,84.8-1.36,11.06.15,22.47.3,33.71.29,45.24-.04,90.9-2.63,135.77-7.71.08.87.16,1.89.23,2.99Z"/>
    <path class="cls-5" d="M489.86,40.91c-.02.93-.05,1.94-.08,3-61.57,3.47-124.55,9.3-167.07,13.65l-8.22.84c-20.49,2.12-41.68,4.31-62.67,5.04-6.74.23-13.53.33-20.35.33-30.15,0-61.01-2.03-91.03-4-44.45-2.93-90.36-5.94-134.02-2.4-.07-1.06.06-2.27.15-3.02,43.77-3.52,89.64-.5,134.06,2.43,36.75,2.41,74.75,4.91,111.09,3.66,20.88-.72,42.02-2.91,62.46-5.02l8.22-.85c42.61-4.35,105.76-10.2,167.46-13.66Z"/>
    <path class="cls-5" d="M489.47,51.27c-.05,1.04-.09,2.06-.14,3.04-19.16,2.42-38.41,5.95-57.08,9.37-34.54,6.33-70.27,12.86-106.14,12.52-8.93-.09-17.97-.61-26.72-1.11-10.39-.6-21.14-1.22-31.71-1.1-9.84.1-19.83.83-29.49,1.55-8.27.6-16.81,1.23-25.26,1.46-2.7.08-5.4.12-8.11.12-20.73,0-41.55-2.07-61.76-4.07-14.38-1.42-29.25-2.89-43.9-3.61-9.03-.43-17.53-1.12-25.76-1.79-20.73-1.67-40.38-3.27-67.28-1.01.05-1.14.11-2.16.18-3.03,26.92-2.22,46.59-.62,67.35,1.05,8.19.67,16.67,1.35,25.66,1.79,14.72.71,29.63,2.19,44.04,3.62,22.76,2.25,46.29,4.57,69.5,3.94,8.38-.24,16.89-.86,25.12-1.47,9.71-.71,19.75-1.45,29.68-1.55,10.66-.11,21.47.51,31.91,1.1,8.71.5,17.72,1.02,26.58,1.11,35.59.34,71.17-6.17,105.57-12.47,18.88-3.46,38.34-7.03,57.76-9.46Z"/>
    <path class="cls-5" d="M489.21,65.96c-86.12,14.58-173.56,21.9-261.12,21.9-38.31,0-76.62-1.4-114.89-4.2-12.04-.89-24.26-2.64-36.08-4.35-23.55-3.38-47.81-6.88-71.18-3.36.04-1.03.09-2.08.13-3.05,23.61-3.44,47.89.06,71.48,3.45,11.77,1.69,23.93,3.44,35.87,4.31,125.61,9.22,251.97,3.25,375.64-17.72.02,1.2.08,2.16.15,3.02Z"/>
    <path class="cls-5" d="M489.68,73.58c-.01.54-.02,1.13-.05,1.78-.02.45-.04.85-.06,1.23-23.16-2.07-46.54,3.98-69.21,9.85-8.66,2.24-17.61,4.55-26.43,6.39-31.27,6.5-64.11,7.4-95.08,7.76-9.14.11-18.47.43-27.49.74-11.17.38-22.54.77-33.93.77s-23.25-.41-34.77-1.63c-74.71-7.93-137.43-11.12-197.02-10.02-.01-1.06-.01-2.08,0-3,59.71-1.1,122.53,2.1,197.34,10.04,22.61,2.4,45.83,1.6,68.28.84,9.04-.31,18.38-.63,27.56-.74,30.82-.36,63.5-1.25,94.5-7.7,8.74-1.82,17.66-4.13,26.28-6.36,22.88-5.92,46.47-12.03,70.08-9.95Z"/>
    <path class="cls-5" d="M203.71,111.15c-.38.9-1,2.41-17.23,4.08-7.19.74-14.47,1.15-19.85,1.15-1.56,0-2.96-.03-4.16-.11-11.47-.69-36.15-.72-67.4-.77-27.01-.04-59.25-.09-90.2-.62,0-.32,0-.58.02-.76.05-.86.09-1.63.13-2.24,30.9.53,63.09.58,90.06.62,31.3.05,56.02.08,67.57.78,9.91.59,28.45-1.24,35.7-2.77-19.24-4.14-126.58-16.34-192.7-12.19v-2.99c38.76-2.39,90.69,1.04,119.11,3.4,29.71,2.46,75.19,7.46,78.44,10.36.62.55.81,1.34.51,2.06Z"/>
    <path class="cls-5" d="M491.52,91.86c-28.37-.33-57.3,4.65-85.42,9.5-21.6,3.73-43.94,7.58-65.75,8.97-15.04.95-28.83,2.92-43.44,5-6.88.98-13.99,2-21.25,2.9-7.8.97-15.65,2.44-23.24,3.86-5.1.95-10.38,1.94-15.62,2.77-16.24,2.58-32.44,3.78-51.75,4.79-19.55,1.02-39.04,1.49-58.77,1.49-38.94,0-78.82-1.8-122.01-4.7.01-.89.1-2.05.4-2.98,64.89,4.34,122.31,6.22,180.23,3.2,19.21-1.01,35.32-2.2,51.43-4.76,5.2-.82,10.46-1.81,15.54-2.76,7.64-1.43,15.53-2.91,23.42-3.89,7.23-.89,14.33-1.91,21.2-2.89,14.66-2.09,28.51-4.06,43.67-5.03,21.64-1.37,43.91-5.21,65.43-8.92,28.24-4.87,57.3-9.89,85.9-9.55.03.31.05.64.07,1,.03.48.01,1.18-.04,2Z"/>
    <path class="cls-5" d="M491.9,145.66c-23.92-.93-42.94-1.39-71.27.86-3.31.26-9.18.43-16.26.43-21.73,0-54.84-1.52-59.97-6.27-.85-.78-1.03-1.58-1.03-2.13,0-2.08,1.71-4.17,22.26-6.91,10.33-1.38,24.14-2.69,36.95-3.52,30.1-1.94,54.3-1.37,87.97.94.13.88.3,1.98.44,3.05-33.88-2.34-58.09-2.95-88.22-1-27.88,1.81-52.34,5.13-56.14,7.56,1.68,1.28,9.76,3.41,31.52,4.6,16.89.92,34.74.86,42.24.26,28.38-2.26,47.42-1.81,71.28-.88.08.9.16,1.92.23,3.01Z"/>
    <path class="cls-5" d="M491.58,115.47c-.02.12-.04.23-.06.33-.18.94-.34,1.84-.47,2.7-21.47,1.06-37.51,1.12-53.09,1.18-17.36.07-35.32.14-60.97,1.55-11.18.61-25.04,4.19-42.58,8.72-10.35,2.67-22.07,5.7-34.79,8.48-26.64,5.81-67.78,5.13-95,4.69-8.66-.14-16.13-.26-20.92-.13-13.95.4-28,.95-41.59,1.47-27.24,1.06-53.66,2.08-80.05,2.08-19.63,0-39.25-.57-59.21-2.11-.09-.68-.15-1.43-.13-2.24,0-.1.07-.39.17-.77,46.7,3.63,91.63,1.88,139.1.04,13.6-.52,27.66-1.07,41.63-1.47,4.85-.13,12.35,0,21.05.13,27.08.44,68.01,1.11,94.31-4.62,12.67-2.77,24.36-5.79,34.68-8.45,17.7-4.57,31.69-8.19,43.17-8.82,25.73-1.41,43.72-1.48,61.11-1.55,16.43-.06,32.06-.12,53.64-1.21Z"/>
    <path class="cls-5" d="M491.86,155.44c-.06.63-.13,1.25-.22,1.84-.07.45-.17.85-.3,1.16h-.46c-16.65,0-33.21-.31-49.4-.61-24.41-.46-49.65-.93-74.72-.33-24.54.58-49.92,1.18-74.87-.14-10.92-.58-27.98-.53-44.47-.49-18.07.05-36.76.11-48.62-.63-35.69-2.23-66.58-1.93-96.45-1.64-32.46.32-63.32.62-99.57-2.04.12-.9.29-1.88.53-2.91.01-.02.01-.05.01-.07,36,2.64,66.69,2.34,99,2.02,29.93-.29,60.87-.59,96.67,1.64,11.76.74,30.4.68,48.42.63,17.3-.04,33.64-.09,44.64.49,24.83,1.32,50.15.72,74.64.14,25.13-.6,50.41-.13,74.84.33,16.5.3,33.38.62,50.33.61Z"/>
  </g>
</svg>