<svg width="1661" height="1213" viewBox="0 0 1661 1213" fill="none" xmlns="http://www.w3.org/2000/svg">
<g clip-path="url(#clip0_64_329)">
<path d="M1657.77 1123.46C1657.77 1123.46 1657.78 1123.48 1657.78 1123.49C1657.8 1123.51 1657.81 1123.53 1657.82 1123.55C1657.93 1123.79 1657.98 1124.03 1657.98 1124.27C1657.98 1125.24 1657.23 1126.18 1656.76 1126.52C1656.75 1126.52 1656.75 1126.53 1656.74 1126.53C1655.95 1127.05 1656.13 1126.86 1657.05 1127.29C1657.15 1127.33 1657.25 1127.38 1657.36 1127.45C1657.43 1127.48 1657.5 1127.52 1657.56 1127.56C1657.94 1127.8 1658.22 1128.08 1658.34 1128.32C1658.46 1128.56 1658.41 1128.74 1658.12 1128.82C1656.17 1129.21 1658.43 1129.55 1658.53 1129.66C1658.67 1129.82 1659 1130.18 1659.32 1130.64C1659.49 1130.89 1659.65 1131.18 1659.79 1131.47C1660.16 1132.3 1660.32 1133.29 1659.71 1134.17C1659.59 1134.34 1659.45 1134.51 1659.26 1134.67C1659.12 1134.81 1658.92 1134.91 1658.65 1135C1658.57 1135.02 1658.51 1135.04 1658.43 1135.05C1654.99 1135.93 1645.44 1135.9 1640.86 1136.07C1636.95 1136.23 1616.71 1136.66 1606.8 1136.62C1583.35 1136.5 1566.78 1136.59 1515.35 1136.56C1500.94 1136.55 1455.99 1136.74 1447.19 1136.74C1366.95 1136.65 1223.58 1136.64 1143.32 1136.83C1075.64 1136.97 945.878 1137.07 850.155 1136.94C823.984 1136.89 800.354 1136.84 781.243 1136.75C780.003 1136.75 778.743 1136.75 777.463 1136.74C696.201 1136.66 558.126 1136.66 479.964 1136.83C412.282 1136.97 282.508 1137.07 186.785 1136.94C158.874 1136.89 133.844 1136.83 114.113 1136.75C89.2723 1136.63 40.7008 1136.55 30.1705 1136.52C25.1204 1136.49 2.22967 1136.19 0.639619 1135.26C-0.0104003 1134.88 -0.32041 1134.28 0.479615 1133.48C0.719622 1133.25 1.06963 1132.99 1.54965 1132.71C1.56965 1132.7 1.56965 1132.69 1.56965 1132.69C2.22967 1132.29 1.12963 1131.87 0.619619 1131.31C0.559617 1131.25 0.619619 1131.11 0.789624 1130.94C0.889627 1130.85 1.02963 1130.73 1.19964 1130.62C1.50965 1130.42 1.90966 1130.24 2.34967 1130.14H2.35967C2.42967 1130.13 2.48968 1130.12 2.55968 1130.11C2.58968 1130.11 2.61968 1130.11 2.63968 1130.11C3.62971 1129.98 2.68968 1129.98 2.01966 1129.84C1.06963 1129.64 1.83966 1129.47 2.03966 1129.3C2.36967 1129 2.66968 1128.82 2.75968 1128.72C2.78968 1128.69 2.82969 1128.66 2.85969 1128.64C2.89969 1128.6 2.94969 1128.55 2.98969 1128.51C3.2897 1128.22 3.56971 1127.96 3.74971 1127.73C3.77971 1127.69 3.80971 1127.65 3.83972 1127.62C4.05972 1127.29 4.04972 1127.04 3.58971 1126.89C3.54971 1126.88 3.4697 1126.73 3.50971 1126.52C3.51971 1126.41 3.56971 1126.27 3.68971 1126.13C3.81972 1125.99 4.01972 1125.86 4.31973 1125.73C4.31973 1125.73 4.53974 1125.56 4.78974 1125.38C5.09975 1125.14 5.45976 1124.88 5.46976 1124.88C6.31979 1124.54 6.07978 1124.66 5.18976 1124.2C4.73974 1123.97 4.66974 1123.76 4.72974 1123.44C4.72974 1123.35 4.74974 1123.28 4.76974 1123.24C4.85975 1123.04 4.92975 1122.86 5.00975 1122.71C5.00975 1122.69 5.02975 1122.66 5.03975 1122.64C5.15976 1122.4 5.23976 1122.26 5.27976 1122.21C5.34976 1122.15 5.38976 1122.05 5.41976 1121.92C5.53977 1121.18 4.98975 1119.6 6.6098 1119.13C7.06981 1118.99 6.95981 1118.51 6.7498 1118.01C6.6398 1117.74 6.4998 1117.46 6.40979 1117.24C6.33979 1117.11 6.29979 1116.99 6.29979 1116.91C6.27979 1116.62 6.27979 1116.36 6.29979 1116.11V1115.78C6.31979 1115.53 6.45979 1115.13 6.5398 1114.59C6.5598 1114.49 6.5698 1114.39 6.5798 1114.28C6.5998 1114.14 6.6298 1113.98 6.6798 1113.8C6.7398 1113.57 6.81981 1113.3 6.90981 1113.04C6.98981 1112.77 7.08981 1112.48 7.16982 1112.22C7.25982 1111.94 7.33982 1111.67 7.37982 1111.47C7.43982 1111.21 7.16982 1110.83 7.25982 1110.62C7.25982 1110.6 7.27982 1110.58 7.27982 1110.56C7.37982 1110.25 7.49983 1109.98 7.63983 1109.75C7.88984 1109.33 8.18985 1109.05 8.53986 1108.94C9.9799 1108.51 8.67986 1108.56 8.22985 1108.35C8.04984 1108.27 7.94984 1108.18 7.88984 1108.07C7.73983 1107.8 8.00984 1107.47 8.18985 1107.27C8.19985 1107.26 8.19985 1107.25 8.18985 1107.22C8.15985 1107.1 7.99984 1106.8 8.06984 1106.61C8.08984 1106.54 8.12985 1106.49 8.21985 1106.46C8.24985 1106.45 8.27985 1106.44 8.29985 1106.43C8.56986 1106.31 7.80984 1106.23 7.57983 1106.16C7.31982 1106.09 6.79981 1105.93 6.37979 1105.82H6.36979C6.22979 1105.77 6.09978 1105.73 5.99978 1105.7C5.33976 1105.49 5.43976 1105.3 5.45976 1104.9V1104.81C5.45976 1104.62 5.55977 1104.35 5.69977 1104.09C5.80977 1103.89 5.93978 1103.7 6.06978 1103.54C6.25979 1103.3 6.35979 1103.24 6.6598 1103.03C6.94981 1102.82 5.94978 1102.71 5.99978 1102.52C6.04978 1102.3 6.5498 1101.83 6.5198 1101.66C6.4898 1101.52 6.38979 1101.46 6.40979 1101.34C6.40979 1101.29 6.43979 1101.24 6.5198 1101.15C6.7798 1100.86 6.87981 1100.67 6.89981 1100.55C6.93981 1100.4 6.83981 1100.36 6.80981 1100.33C6.6598 1100.18 6.84981 1099.34 7.68983 1099.05C8.10984 1098.9 8.74986 1098.89 8.00984 1098.75C7.59983 1098.68 6.85981 1098.06 7.26982 1097.92C8.08984 1097.66 6.4998 1097.74 6.43979 1097.5C6.41979 1097.41 5.62977 1097.48 5.60977 1097.4C5.14976 1095.65 0.369609 1095.36 36.2107 1095.03C42.1809 1094.98 79.172 1094.18 139.564 1094.06C145.064 1094.05 221.576 1094.29 226.546 1094.29C411.902 1094.21 558.816 1094.11 649.329 1093.77C653.659 1093.77 659.089 1093.75 665.35 1093.75C665.35 1093.75 665.356 1093.75 665.37 1093.75C665.62 1093.7 665.88 1093.66 666.14 1093.66H699.581C705.541 1093.61 742.532 1092.77 802.934 1092.66C808.424 1092.65 884.946 1092.9 889.916 1092.9C1075.27 1092.81 1222.19 1092.71 1312.69 1092.36C1340.77 1092.25 1414.65 1092.41 1462.88 1092.55C1524 1092.71 1590.04 1092.04 1604.26 1092.01C1615.86 1091.99 1622.68 1092.11 1632.03 1092.45C1632.03 1092.45 1640.45 1092.8 1640.47 1092.8C1645.08 1092.98 1646.52 1093.25 1648.9 1093.42C1649.33 1093.45 1649.71 1093.47 1650.06 1093.51C1651.44 1093.63 1652.26 1094.24 1651.81 1094.81C1651.75 1094.9 1651.71 1094.96 1651.67 1095.01C1651.55 1095.26 1650.87 1095.4 1651.61 1095.58C1651.87 1095.64 1651.77 1096.27 1650.74 1096.62C1649.96 1096.9 1653.67 1097 1653.36 1097.64C1653.23 1097.94 1654.59 1098.43 1655.06 1099.12C1655.1 1099.17 1655.12 1099.22 1655.15 1099.28C1655.26 1099.53 1655.28 1099.79 1655.24 1100.06C1655.14 1100.71 1654.7 1101.31 1654.61 1101.35C1654.31 1101.52 1654.78 1102.04 1655.24 1102.49C1655.55 1102.8 1655.84 1103.1 1655.89 1103.25C1655.9 1103.27 1655.9 1103.29 1655.9 1103.3C1655.74 1103.94 1655.07 1104.76 1654.84 1105.45C1654.74 1105.73 1654.66 1106.02 1654.56 1106.29C1654.5 1106.46 1654.44 1106.64 1654.39 1106.8C1654.3 1107.08 1654.21 1107.35 1654.15 1107.6C1654.04 1108 1653.98 1108.32 1653.99 1108.54C1653.99 1108.59 1653.99 1108.63 1654.01 1108.67C1654.04 1108.94 1654.13 1109.18 1654.25 1109.38C1654.27 1109.42 1654.3 1109.45 1654.32 1109.5C1654.48 1109.75 1654.66 1109.97 1654.83 1110.2C1655.13 1110.58 1655.36 1110.98 1655.27 1111.6C1655.25 1111.75 1655.23 1111.91 1655.17 1112.09C1655.16 1112.11 1655.16 1112.13 1655.15 1112.15C1655.12 1112.25 1655.08 1112.34 1655.05 1112.43C1654.88 1112.81 1655.13 1112.78 1656.06 1112.9C1656.51 1112.97 1657.12 1113.07 1657.92 1113.27C1658.63 1113.45 1658.87 1113.86 1658.93 1114.29C1658.97 1114.57 1658.94 1114.86 1658.91 1115.11C1658.88 1115.41 1658.86 1115.67 1658.96 1115.82C1659.02 1115.91 1659.06 1115.99 1659.1 1116.08C1659.16 1116.22 1659.12 1116.41 1659.02 1116.64C1658.84 1117.01 1658.53 1117.49 1658.27 1117.94C1657.98 1118.44 1656.47 1118.75 1658.53 1119.29C1662.71 1120.38 1660.68 1121.98 1659.02 1122.74C1658.97 1122.77 1658.91 1122.8 1658.86 1122.82C1658.28 1123.08 1657.48 1122.92 1657.77 1123.47V1123.46Z" fill="#8F4822"/>
<path d="M1655.24 1102.48C1583.78 1106.45 1507.93 1105.75 1431.84 1103.72C1507.21 1102.78 1581.77 1101.56 1655.24 1100.05C1655.28 1099.78 1655.26 1099.52 1655.15 1099.27C1575.4 1100.91 1494.3 1102.18 1412.34 1103.17C1386.88 1102.42 1361.43 1101.55 1336.14 1100.69C1265.28 1098.27 1198.33 1095.98 1134.37 1096.27C1066.35 1096.56 999.52 1096.94 934.838 1097.31C741.232 1098.42 558.337 1099.47 358.701 1098.23C331.28 1098.07 300.969 1098.38 271.668 1098.69C240.567 1099.01 208.396 1099.35 179.365 1099.11C142.394 1098.8 63.2816 1099.37 6.8999 1100.54C6.8799 1100.66 6.77989 1100.85 6.51989 1101.14C6.43988 1101.23 6.40988 1101.28 6.40988 1101.33C62.7816 1100.16 142.274 1099.59 179.345 1099.9C208.396 1100.14 240.577 1099.8 271.678 1099.48C300.989 1099.17 331.28 1098.86 358.681 1099.02C558.337 1100.26 741.232 1099.21 934.858 1098.1C999.52 1097.73 1066.36 1097.35 1134.39 1097.06C1198.3 1096.78 1265.23 1099.06 1336.08 1101.48C1355.19 1102.13 1374.41 1102.78 1393.64 1103.39C1083.13 1106.96 760.073 1106.48 444.943 1106.02C292.899 1105.79 148.484 1105.59 6.37988 1105.81C6.7999 1105.92 7.31991 1106.08 7.57992 1106.15C7.80993 1106.22 8.56995 1106.3 8.29994 1106.42C8.27994 1106.43 8.24994 1106.44 8.21994 1106.45C8.12994 1106.48 8.08993 1106.53 8.06993 1106.6C149.634 1106.36 293.499 1106.58 444.943 1106.81C766.393 1107.28 1096.1 1107.77 1412.33 1103.96C1495.13 1106.41 1578.1 1107.59 1655.89 1103.24C1655.84 1103.09 1655.55 1102.79 1655.24 1102.48Z" fill="#B26B31"/>
<path d="M1656.06 1112.89C1328.44 1122.77 989.26 1119.73 660.77 1116.78C445.223 1114.84 222.817 1112.86 6.54004 1114.58C6.56004 1114.48 6.57004 1114.38 6.58004 1114.27C6.60004 1114.13 6.63004 1113.97 6.68004 1113.79C222.927 1112.06 445.273 1114.05 660.79 1115.99C988.94 1118.94 1327.82 1121.98 1655.15 1112.14C1655.12 1112.24 1655.08 1112.33 1655.05 1112.42C1654.88 1112.8 1655.13 1112.77 1656.06 1112.89Z" fill="#B26B31"/>
<path d="M1656.74 1126.53C1656.74 1126.53 1656.75 1126.52 1656.76 1126.52C1529.62 1132.39 1287.86 1132.57 1022.55 1130.77C1193.52 1128.55 1526.79 1124.49 1657.98 1124.27C1657.98 1124.03 1657.93 1123.79 1657.82 1123.55C1657.81 1123.53 1657.8 1123.51 1657.78 1123.49C1515.47 1123.74 1136.57 1128.46 983.44 1130.48C823.745 1129.29 657.26 1127.46 503.325 1125.75C292.209 1123.43 104.223 1121.35 5.42048 1121.91C5.39048 1122.04 5.35048 1122.14 5.28048 1122.2C5.24048 1122.25 5.16047 1122.39 5.04047 1122.62C5.03047 1122.65 5.01047 1122.68 5.01047 1122.7C103.663 1122.14 291.859 1124.22 503.295 1126.54C645.23 1128.11 797.884 1129.8 946.019 1130.99C935.759 1131.11 928.038 1131.23 923.288 1131.3C531.486 1136.98 230.087 1135.05 4.79046 1125.37C4.54046 1125.55 4.33045 1125.72 4.32045 1125.72C4.02044 1125.85 3.82043 1125.98 3.69043 1126.12C229.157 1135.84 530.896 1137.78 923.328 1132.09C932.728 1131.96 953.889 1131.66 983.44 1131.27C1264.05 1133.37 1523.65 1133.46 1657.05 1127.29C1656.13 1126.86 1655.95 1127.05 1656.74 1126.53Z" fill="#B26B31"/>
</g>
<g clip-path="url(#clip1_64_329)">
<path d="M1608.94 1016.72C1608.9 1046.05 1608.84 1072.35 1608.76 1093.08C1608.65 1119.19 1608.57 1170.23 1608.54 1181.3C1608.52 1186.6 1608.24 1210.66 1607.37 1212.33C1607.01 1213.01 1606.44 1213.34 1605.69 1212.5C1605.47 1212.24 1605.22 1211.88 1604.97 1211.37C1604.96 1211.35 1604.95 1211.35 1604.95 1211.35C1604.57 1210.66 1604.17 1211.81 1603.65 1212.35C1603.59 1212.41 1603.46 1212.35 1603.3 1212.17C1603.21 1212.06 1603.1 1211.92 1603 1211.74C1602.81 1211.41 1602.64 1210.99 1602.55 1210.53C1602.54 1210.45 1602.53 1210.38 1602.52 1210.31C1602.52 1210.28 1602.51 1210.25 1602.51 1210.23C1602.38 1209.19 1602.38 1210.17 1602.25 1210.88C1602.06 1211.88 1601.91 1211.07 1601.75 1210.86C1601.46 1210.51 1601.29 1210.19 1601.2 1210.1C1601.17 1210.07 1601.14 1210.03 1601.12 1209.99C1601.08 1209.95 1601.04 1209.9 1601 1209.86C1600.73 1209.54 1600.49 1209.25 1600.27 1209.06C1600.23 1209.03 1600.19 1209 1600.16 1208.96C1599.85 1208.73 1599.62 1208.74 1599.48 1209.23C1599.47 1209.27 1599.33 1209.35 1599.13 1209.31C1598.91 1209.29 1598.62 1209.1 1598.39 1208.46C1598.38 1208.44 1597.59 1207.27 1597.59 1207.25C1597.27 1206.36 1597.38 1206.61 1596.95 1207.55C1596.73 1208.02 1596.54 1208.09 1596.23 1208.03C1596.15 1208.03 1596.08 1208.01 1596.04 1207.99C1595.82 1207.88 1595.62 1207.8 1595.48 1207.7C1595.26 1207.58 1595.12 1207.49 1595.08 1207.45C1594.63 1206.92 1592.7 1208.04 1592.18 1206.05C1592.05 1205.57 1591.59 1205.69 1591.13 1205.91C1590.87 1206.02 1590.61 1206.17 1590.4 1206.26C1590.27 1206.34 1590.16 1206.38 1590.09 1206.38C1589.82 1206.4 1589.57 1206.4 1589.33 1206.38H1589.03C1588.74 1206.36 1588.26 1206.15 1587.62 1206.09C1587.3 1206.04 1586.88 1205.91 1586.45 1205.74C1586.19 1205.65 1585.92 1205.55 1585.68 1205.47C1585.41 1205.37 1585.16 1205.29 1584.97 1205.24C1584.72 1205.18 1584.37 1205.47 1584.17 1205.37C1584.15 1205.37 1584.13 1205.35 1584.11 1205.35C1583.82 1205.24 1583.57 1205.12 1583.35 1204.97C1582.96 1204.71 1582.69 1204.39 1582.59 1204.03C1582.19 1202.51 1582.23 1203.88 1582.04 1204.35C1581.96 1204.54 1581.87 1204.65 1581.77 1204.71C1581.51 1204.87 1581.21 1204.58 1581.02 1204.39C1581.01 1204.38 1581 1204.38 1580.97 1204.39C1580.82 1204.44 1580.36 1204.73 1580.26 1204.36C1580.25 1204.33 1580.24 1204.3 1580.23 1204.28C1580.12 1203.99 1580.04 1204.79 1579.98 1205.03C1579.88 1205.4 1579.66 1206.26 1579.54 1206.69C1579.34 1207.39 1579.17 1207.28 1578.79 1207.26H1578.7C1578.52 1207.26 1578.27 1207.16 1578.03 1207.01C1577.84 1206.89 1577.66 1206.76 1577.51 1206.62C1577.28 1206.42 1577.22 1206.32 1577.03 1206C1576.83 1205.7 1576.73 1206.75 1576.55 1206.69C1576.34 1206.64 1575.9 1206.12 1575.74 1206.15C1575.55 1206.19 1575.51 1206.4 1575.26 1206.15C1574.62 1205.53 1574.54 1205.78 1574.49 1205.84C1574.35 1206 1573.56 1205.8 1573.28 1204.92C1573.14 1204.48 1573.13 1203.8 1573 1204.58C1572.93 1205.01 1572.35 1205.79 1572.22 1205.36C1571.97 1204.5 1572.05 1206.17 1571.82 1206.23C1571.75 1206.25 1571.8 1207.08 1571.74 1207.1C1570.09 1207.59 1569.81 1212.61 1569.51 1174.95C1569.46 1168.67 1568.7 1129.8 1568.59 1066.34C1568.59 1060.56 1568.8 980.158 1568.8 974.935C1568.73 780.156 1568.63 625.773 1568.32 530.658C1568.22 501.16 1568.37 423.522 1568.49 372.828C1568.63 308.619 1568.03 239.209 1568.01 224.276V222.332C1568 222.259 1568 222.196 1568 222.122V167.119C1568 164.85 1569.74 163 1571.89 163H1604.47C1606.61 163 1608.36 164.85 1608.36 167.119V194.947C1608.51 203.206 1608.68 214.745 1608.65 221.597C1608.54 246.25 1608.62 263.663 1608.59 317.709C1608.58 332.842 1608.77 380.079 1608.76 389.326C1608.68 473.648 1608.68 624.312 1608.84 708.634C1608.97 779.757 1609.07 916.129 1608.94 1016.72Z" fill="#8F4822"/>
<path d="M1601.49 997.729C1603.77 953.456 1605.92 911.631 1605.65 871.677C1605.37 829.179 1605.02 787.428 1604.67 747.022C1603.62 626.067 1602.64 511.806 1603.8 387.088C1603.96 369.959 1603.66 351.022 1603.37 332.716C1603.07 313.285 1602.75 293.193 1602.98 275.055C1603.27 251 1602.68 198.383 1601.49 163H1600.76C1601.95 198.351 1602.53 250.99 1602.23 275.044C1602 293.193 1602.32 313.296 1602.63 332.726C1602.92 351.033 1603.21 369.959 1603.06 387.077C1601.9 511.806 1602.88 626.067 1603.93 747.033C1604.27 787.428 1604.63 829.19 1604.91 871.687C1605.17 911.61 1603.03 953.424 1600.75 997.687C1600.13 1009.62 1599.52 1021.64 1598.94 1033.65C1595.58 839.667 1596.04 637.837 1596.48 440.966C1596.69 344.559 1596.89 253.06 1596.66 163H1595.92C1596.16 253.06 1595.95 344.559 1595.73 440.966C1595.29 641.788 1594.83 847.769 1598.41 1045.32C1595.93 1101.16 1594.83 1157.09 1600.16 1208.96C1600.19 1209 1600.23 1209.03 1600.27 1209.06C1600.49 1209.25 1600.73 1209.54 1601 1209.86C1595.95 1161.53 1596.55 1109.6 1598.64 1057.51C1599.61 1109.1 1600.89 1160.08 1602.51 1210.23C1602.51 1210.25 1602.52 1210.28 1602.52 1210.31C1602.52 1210.38 1602.54 1210.45 1602.55 1210.52C1602.64 1210.99 1602.81 1211.41 1603 1211.74C1603.1 1211.92 1603.21 1212.06 1603.3 1212.17C1601.53 1157.47 1600.18 1101.73 1599.15 1045.33C1599.86 1029.42 1600.68 1013.52 1601.49 997.729Z" fill="#B26B31"/>
<path d="M1591.13 1205.91C1590.87 1206.02 1590.61 1206.17 1590.4 1206.26C1580.63 998.906 1583.54 783.918 1586.35 575.804C1588.19 439.789 1590.08 299.393 1588.37 163H1589.11C1590.83 299.403 1588.94 439.789 1587.09 575.814C1584.28 783.792 1581.38 998.664 1591.13 1205.91Z" fill="#B26B31"/>
<path d="M1580.33 477.442C1582.83 343.099 1585.06 223.751 1584.56 163H1583.81C1584.32 223.719 1582.09 343.056 1579.58 477.421C1577.92 566.094 1576.13 661.46 1574.83 754C1574.72 747.59 1574.62 742.766 1574.56 739.803C1569.68 493.289 1571.96 304.059 1581.51 163H1580.77C1571.21 304.09 1568.94 493.321 1573.82 739.824C1573.94 745.698 1574.18 758.918 1574.51 777.382C1572.09 959.078 1571.73 1126.68 1578.03 1207.01C1578.27 1207.16 1578.52 1207.26 1578.7 1207.26H1578.79C1572.76 1130.72 1572.82 974.221 1574.94 801.815C1576.84 911.095 1580.35 1126.52 1580.23 1204.28C1580.23 1204.3 1580.25 1204.33 1580.26 1204.36C1580.36 1204.73 1580.82 1204.44 1580.97 1204.39C1581.09 1120.4 1577 875.187 1575.25 777.382C1576.58 677.612 1578.52 573.607 1580.33 477.442Z" fill="#B26B31"/>
</g>
<g clip-path="url(#clip2_64_329)">
<path d="M92.5935 1182.54C92.5935 1182.54 92.2765 1191.4 92.2765 1191.42C92.1179 1196.26 91.8702 1197.78 91.7117 1200.28C91.682 1200.73 91.6622 1201.13 91.6324 1201.5C91.5234 1202.95 90.9686 1203.81 90.4435 1203.34C90.3741 1203.28 90.3147 1203.23 90.2651 1203.19C90.0372 1203.07 89.9084 1202.35 89.7499 1203.13C89.6904 1203.4 89.1257 1203.3 88.7987 1202.21C88.551 1201.39 88.4519 1205.29 87.8673 1204.97C87.5998 1204.83 87.144 1206.26 86.5198 1206.76C85.7074 1207.39 84.558 1206.42 84.4886 1206.28C84.2112 1205.72 82.9826 1207.7 82.7151 1207.64C82.1305 1207.47 81.3775 1206.77 80.7533 1206.52C80.4957 1206.42 80.238 1206.33 79.9903 1206.23C79.8318 1206.17 79.6733 1206.1 79.5247 1206.05C79.267 1205.96 79.0193 1205.86 78.8014 1205.8C78.4348 1205.68 78.1375 1205.62 77.9393 1205.63C77.8997 1205.63 77.8601 1205.63 77.8204 1205.65C77.5727 1205.68 77.3647 1205.78 77.1764 1205.9C77.1368 1205.92 77.1071 1205.96 77.0674 1205.98C76.8395 1206.15 76.6414 1206.33 76.4333 1206.51C76.0865 1206.83 75.7199 1207.07 75.1552 1206.98C75.0164 1206.95 74.8678 1206.93 74.6994 1206.87C74.5904 1206.83 74.4913 1206.79 74.3922 1206.74C73.877 1206.48 74.204 1207.18 73.6293 1209.76C73.4609 1210.51 73.0943 1210.76 72.6979 1210.82C72.4502 1210.87 72.1827 1210.83 71.9548 1210.8C71.6774 1210.77 71.4396 1210.75 71.3108 1210.86C71.2315 1210.92 71.1523 1210.96 71.0631 1211C70.9442 1211.07 70.7658 1211.02 70.5578 1210.92C70.2209 1210.73 69.7948 1210.4 69.3787 1210.13C68.913 1209.83 68.6356 1208.24 68.1501 1210.4C67.1494 1214.8 65.6929 1212.66 64.9993 1210.92C64.9696 1210.87 64.9497 1210.8 64.9299 1210.75C64.6921 1210.14 64.8407 1209.3 64.3453 1209.6C64.3156 1209.63 64.2859 1209.64 64.2562 1209.66C63.1663 1210.25 61.9079 1209.14 61.5413 1208.52C61.0162 1207.61 61.2837 1207.93 60.709 1209.17C60.6793 1209.25 60.6397 1209.32 60.6001 1209.38C60.392 1209.78 60.1245 1210.08 59.9065 1210.2C59.6885 1210.33 59.5201 1210.28 59.4606 1209.97C59.1039 1207.92 58.7869 1210.3 58.6878 1210.4C58.5491 1210.55 58.2221 1210.9 57.796 1211.23C57.5682 1211.41 57.3105 1211.58 57.043 1211.73C56.2801 1212.12 55.3784 1212.29 54.5858 1211.64C54.4273 1211.52 54.2687 1211.37 54.1201 1211.17C54.0012 1211.02 53.9021 1210.81 53.8229 1210.53C53.803 1210.45 53.7832 1210.38 53.7733 1210.3C52.9807 1206.68 53.0005 1196.64 52.842 1191.83C52.7032 1187.72 52.3069 1166.44 52.3465 1156.02C52.4555 1131.37 52.3763 1113.95 52.406 1059.88C52.406 1044.74 52.2376 997.481 52.2376 988.229C52.3168 903.872 52.3267 753.145 52.1583 668.777C52.0295 597.624 51.9304 461.205 52.0592 360.573C52.0988 331.221 52.1583 304.917 52.2376 284.174C52.3366 261.329 52.406 219.361 52.4456 201.825V167.121C52.4456 164.85 54.1895 163 56.3296 163H87.6097C89.7598 163 91.4937 164.85 91.4937 167.121V202.277C91.5433 208.543 92.3062 247.431 92.4053 310.93C92.4152 316.702 92.1972 397.149 92.1972 402.374C92.2666 597.235 92.3656 751.683 92.6827 846.827C92.7818 876.348 92.6332 954.019 92.5143 1004.72C92.3656 1068.97 92.97 1138.4 92.9998 1153.35C93.0196 1165.54 92.9106 1172.71 92.5935 1182.54Z" fill="#8F4822"/>
<path d="M62.4833 327.983C65.0197 271.632 66.1195 215.156 60.3431 163H59.5901C64.9603 211.434 64.3955 263.611 62.2554 315.966C61.2645 264.284 59.9666 213.211 58.302 163H57.5688C59.3523 217.09 60.7097 272.2 61.7401 327.972C61.0267 343.658 60.2143 359.322 59.4018 374.892C57.1229 418.522 54.9729 459.733 55.2404 499.116C55.5178 540.99 55.8745 582.138 56.2213 621.951C57.2716 741.149 58.2525 853.756 57.0932 976.654C56.9347 993.538 57.2319 1012.2 57.5193 1030.24C57.8264 1049.39 58.1435 1069.19 57.9156 1087.06C57.5787 1113.87 58.3813 1176.67 59.9071 1210.2C60.1251 1210.08 60.3926 1209.78 60.6007 1209.38C59.1046 1175.7 58.3218 1113.67 58.6587 1087.07C58.8866 1069.19 58.5695 1049.38 58.2624 1030.23C57.975 1012.19 57.6778 993.538 57.8363 976.665C58.9956 853.756 58.0147 741.149 56.9644 621.941C56.6176 582.138 56.2609 540.979 55.9835 499.105C55.7259 459.754 57.866 418.553 60.1449 374.934C60.7592 363.17 61.3735 351.332 61.9482 339.495C65.3071 530.655 64.8513 729.553 64.4153 923.563C64.1875 1022.92 63.9794 1116.97 64.2568 1209.66C64.2865 1209.64 64.3163 1209.63 64.346 1209.6C64.8414 1209.3 64.6928 1210.14 64.9306 1210.75C64.9504 1210.8 64.9702 1210.87 64.9999 1210.92C64.7126 1117.82 64.9306 1023.37 65.1585 923.563C65.6043 725.663 66.0601 522.665 62.4833 327.983Z" fill="#B26B31"/>
<path d="M74.5414 790.298C72.6391 928.903 70.6872 1072.11 72.6985 1210.82C72.4508 1210.87 72.1833 1210.83 71.9554 1210.8C69.9341 1072.08 71.896 928.893 73.7983 790.288C76.642 583.2 79.5649 369.194 69.4883 163H70.2314C80.308 369.205 77.3851 583.2 74.5414 790.298Z" fill="#B26B31"/>
<path d="M87.0748 628.501C86.9559 622.708 86.7082 609.672 86.3812 591.453C88.8484 408.629 89.1753 240.282 82.4774 163H81.7244C88.135 236.781 88.1152 393.911 85.9552 567.356C83.9835 455.886 80.3075 232.45 80.684 163H79.9409C79.5446 237.948 83.8447 491.988 85.6381 591.453C84.3104 689.866 82.3684 792.464 80.5651 887.324C77.9296 1026.84 75.5912 1149.96 76.4334 1206.51C76.6415 1206.33 76.8397 1206.15 77.0675 1205.98C77.1072 1205.96 77.1369 1205.92 77.1765 1205.9C76.3542 1149.12 78.6826 1026.39 81.3082 887.345C82.9728 799.876 84.7563 705.804 86.0642 614.518C86.1732 620.847 86.2722 625.599 86.3317 628.522C91.3056 876.558 88.8385 1065.81 78.8015 1205.8C79.0195 1205.86 79.2672 1205.96 79.5248 1206.05C89.5816 1065.99 92.0487 876.674 87.0748 628.501Z" fill="#B26B31"/>
</g>
<g clip-path="url(#clip3_64_329)">
<path d="M1647.16 211.98C1646.87 212.759 1646.38 213.432 1645.79 213.867C1640.08 218.122 1624.25 217.929 1616.66 218.771C1610.18 219.497 1580.42 219.868 1564.19 218.802L28.8427 212.874C28.1615 212.872 6.31926 213.314 5.27769 207.735C4.23612 202.156 5.73512 202.979 6.37646 196.862C6.65915 194.141 11.4152 190.055 12.4383 184.613C13.4721 179.118 8.20415 178.763 8.52548 177.839C10.6035 171.845 59.8848 176.696 60.051 173.71C60.3494 168.65 14.983 174.51 9.06734 168.538C8.50446 167.968 10.7121 161.102 11.1083 160.006C13.4217 153.47 13.7705 149.718 18.2653 148.275C26.4136 145.65 101.908 142.154 105.179 140.364C105.542 140.167 105.015 147.631 104.91 146.944C104.059 141.551 20.3935 143.668 17.4757 139.446C7.52315 125.034 11.6562 113.812 12.2648 112.928C15.8421 107.65 43.1858 107.855 43.2211 101.433C43.2563 95.0508 17.6252 100.214 17.2161 97.4517C16.8071 94.6627 16.7088 86.0338 19.8455 82.6711C23.1208 79.1634 17.364 78.4505 18.7527 76.1939C25.2258 65.6766 55.7399 81.2299 59.8404 70.2581C61.6177 65.505 124.333 74.5745 123.433 72.5904C119.927 64.7998 53.0306 69.239 40.7361 69.5689C26.1425 69.9731 21.3912 71.8259 15.4327 66.0252C14.9441 65.5485 13.9347 45.2233 14.8321 43.6925C16.7338 40.4857 14.5279 41.6437 15.3715 40.4166C16.2471 39.1368 16.6511 39.3359 18.4727 38.6659C36.5393 32.006 62.2947 47.9453 57.3294 40.5743C53.2872 34.5664 38.4109 37.6524 17.6158 36.2327C15.0298 36.0553 14.7623 31.7999 15.0872 29.2503C15.6613 24.6928 13.0912 22.0444 13.5656 19.2969C13.8673 17.5798 15.9218 17.505 16.4649 17.374C17.8493 17.0467 21.2432 17.728 24.5864 17.286C40.2481 15.1928 1114.26 9.89984 1242.36 4.53717C1255.57 3.9846 1264.26 3.55429 1270.63 3.29072C1275.31 3.10272 1514.58 4.04791 1556.71 3.91525C1587.1 3.80981 1622.3 7.52047 1632.34 10.1059C1634.64 10.6923 1636 13.708 1635.23 16.5077C1635.14 16.8775 1635.05 17.1944 1635 17.4718C1634.8 18.6606 1634.75 19.3741 1634.75 19.9422C1634.76 21.224 1634.85 22.1624 1634.88 22.4267C1635.04 23.6824 1638.58 33.9705 1637.66 39.743C1637.12 43.0849 1637.08 42.2127 1636.36 45.0785C1635.89 46.9671 1635.95 47.9847 1636.63 49.2019C1637.46 50.6836 1637.79 48.4908 1638.47 51.7826C1640.08 59.7805 1635.96 80.0415 1638.83 85.0823C1640.32 87.6755 1640.85 88.1391 1641.45 93.1088C1641.65 94.7346 1642.04 97.18 1641.75 99.8221C1641.22 104.591 1637.2 103.063 1640.41 107.523C1643.36 111.612 1647.51 115.546 1648.05 119.26C1648.47 122.195 1644.44 132.387 1645.14 136.406C1646.44 143.967 1647.86 156.179 1645.97 160.06C1642.18 167.795 1596.95 167.538 1620.76 165.383C1622.71 165.202 1642.68 169.607 1643.06 172.026C1645.26 186.011 1652.13 199.213 1647.14 211.993L1647.16 211.98Z" fill="#8F4822"/>
<path d="M1647.19 206.787C1646.89 207.553 1646.41 208.199 1645.82 208.634C1640.14 212.797 1624.36 212.604 1616.81 213.434C1610.36 214.133 1580.71 214.504 1564.54 213.465L29.291 207.589C28.6098 207.588 8.09299 210.344 5.46333 205.754C4.06365 203.319 6.38259 199.096 7.02362 193.124C7.30619 190.456 5.14125 187.518 6.16401 182.208C7.19753 176.845 8.72528 174.246 9.04656 173.348C11.1136 167.485 60.2036 172.244 60.3803 169.311C60.6678 164.356 16.3021 170.126 10.4181 164.286C9.86585 163.73 10.3369 162.462 10.7331 161.393C13.0355 155.002 9.96698 146.658 14.4512 145.24C22.5674 142.681 102.087 138.468 105.347 136.704C105.71 136.507 105.958 134.803 105.853 134.129C105.003 128.855 17.224 133.01 14.3165 128.895C4.40591 114.8 18.7485 107.498 17.9333 100.612C17.3273 95.4172 43.7019 100.747 43.7369 94.4706C43.7718 88.2338 18.211 95.3267 17.8124 92.6169C17.4033 89.894 17.2041 83.5905 20.33 80.3071C23.5945 76.8786 17.4072 78.3583 18.785 76.1678C25.2257 65.9015 56.0966 78.9052 60.1646 68.1845C61.931 63.537 123.874 65.6015 122.984 63.6703C119.488 56.0647 41.1732 59.6729 29.0766 62.0118C25.6692 62.665 18.8861 63.9848 15.4131 60.5284C14.9352 60.0517 14.1293 44.0083 13.9737 42.1712C13.9634 42.0127 13.7753 40.4001 14.6188 39.1995C15.4943 37.9593 17.144 37.9894 18.9549 37.3326C36.9573 30.8311 63.278 41.3539 58.3337 34.1416C54.3018 28.2658 38.5581 33.7945 17.8481 32.4014C15.2727 32.224 15.2549 30.6251 15.5796 28.1284C16.1535 23.6766 13.594 21.0811 14.0681 18.3997C14.3698 16.7222 16.4136 16.6474 16.9567 16.5296C18.3305 16.2023 21.7138 16.8704 25.0463 16.4416C40.6547 14.3879 1116.33 9.28353 1243.94 4.05193C1257.1 3.51246 1265.76 3.09532 1272.1 2.83168C1276.76 2.64362 1515.12 3.58684 1557.08 3.4538C1587.35 3.36132 1622.42 6.97919 1632.43 9.51167C1634.72 10.0849 1636.07 13.0345 1635.31 15.7681C1635.21 16.1247 1635.13 16.4416 1635.08 16.7058C1634.89 17.8682 1634.84 18.5684 1634.85 19.1234C1634.85 20.3788 1634.95 21.3039 1634.98 21.5551C1635.14 22.7843 1638.62 34.1162 1637.71 39.7565C1637.17 43.0324 1628.86 41.3361 1623.06 41.0327C1598.58 39.7504 1535.49 35.0935 1535.81 39.9966C1536.2 46.1286 1546.11 45.0007 1558.67 45.0281C1595.12 45.1077 1593.82 47.0869 1615.85 45.2983C1623.78 44.6549 1635.08 45.4856 1636.36 47.9594C1637.5 50.1686 1639.96 50.2929 1640.31 51.6811C1641.88 57.9611 1638.64 74.8414 1638.79 81.5015C1638.95 88.9148 1641.67 89.8325 1640.68 98.5251C1640.14 103.188 1609.59 100.254 1609.53 102.078C1609.37 106.848 1639.14 104.693 1642.34 109.06C1645.28 113.057 1646.61 114.078 1647.14 117.699C1647.56 120.568 1644.49 128.991 1645.19 132.917C1646.48 140.307 1648.79 148.187 1646.9 151.976C1643.14 159.526 1547.54 147.689 1542.65 151.167C1541.33 152.102 1533.86 155.032 1534.55 156.276C1536.04 158.961 1615.3 166.032 1639.03 163.93C1640.97 163.763 1642.73 165.365 1643.11 167.731C1645.31 181.399 1652.15 194.298 1647.19 206.787Z" fill="#D89A64"/>
<path d="M1443.63 111.388C1443.55 149.311 1398.2 184.282 1321.45 212.537L293.247 208.601C219.355 180.321 175.929 145.804 176.01 108.62C176.087 73.4585 215.072 40.8393 281.911 13.7515C612.718 11.223 1155.54 7.66427 1243.9 4.03835C1257.05 3.49887 1265.72 3.08173 1272.06 2.81809C1273.05 2.78061 1284.58 2.79256 1302.53 2.83174C1390.84 32.5707 1443.72 70.3589 1443.63 111.388Z" fill="#DEAA7D"/>
<g opacity="0.45">
<path d="M1645.51 134.437C1541.01 133.43 1437.34 125.235 1336.77 117.286C1213.08 107.515 1085.17 97.4178 953.086 100.195C891.21 101.5 827.816 105.749 766.52 109.87C741.907 111.521 716.443 113.236 691.565 114.714C632.452 118.232 572.398 113.727 514.335 109.359C465.477 105.685 414.958 101.888 365.281 102.902C316.998 103.894 267.918 109.455 220.445 114.835C152.2 122.562 81.8268 130.535 12.3022 125.071C11.3804 123.127 10.9266 121.329 10.8026 119.65C80.5821 125.366 151.403 117.354 220.062 109.562C267.61 104.182 316.765 98.6077 365.207 97.6167C415.055 96.6023 465.658 100.413 514.591 104.087C572.548 108.442 632.474 112.947 691.364 109.428C716.231 107.95 741.685 106.248 766.297 104.584C827.636 100.476 891.062 96.2144 953.023 94.9094C1085.28 92.1325 1213.27 102.243 1337.04 112.014C1437.44 119.937 1540.92 128.131 1645.17 129.151C1645.03 130.393 1644.99 131.529 1645.15 132.428C1645.26 133.102 1645.39 133.763 1645.51 134.437Z" fill="#C17C42"/>
<path d="M1635.21 22.2557C1599.78 19.2316 1561.54 22.2138 1524.19 25.1186C1489.12 27.8566 1456 30.4402 1426.17 28.1552C1330.87 20.8777 1236.17 24.6351 1131.13 29.8896C1090.66 31.9155 1064.02 31.1834 1038.26 30.4665C1010.14 29.6783 983.587 28.9464 940.654 31.5351C927.763 32.313 870.715 30.4046 804.664 28.1859C710.004 25.0061 592.185 21.0358 560.407 23.6356C457.867 32.0404 354.527 36.1225 251.26 35.8971C172.506 35.7252 93.8112 33.0427 15.526 27.8506C15.5262 27.7713 15.537 27.7052 15.5478 27.626C15.8077 25.6048 15.4175 23.9522 14.9629 22.5241C196.011 34.5608 379.312 33.1639 560.131 18.3627C592.101 15.7501 710.026 19.7206 804.793 22.9006C870.748 25.1192 927.721 27.0406 940.442 26.2623C983.534 23.6608 1010.16 24.3928 1038.36 25.1811C1064.05 25.8979 1090.62 26.6298 1130.96 24.6169C1236.12 19.3495 1330.94 15.5923 1426.44 22.8834C1456 25.1415 1488.99 22.5707 1523.92 19.8457C1561.21 16.9407 1599.4 13.9585 1634.93 16.9431C1634.83 17.6828 1634.79 18.1981 1634.8 18.621C1634.82 19.8763 1634.9 20.8015 1634.94 21.0526C1634.96 21.2377 1635.05 21.6607 1635.21 22.2557Z" fill="#C17C42"/>
<path d="M1640.69 55.8837C1640.69 57.4957 1640.6 59.2794 1640.47 61.1687C1585.5 58.4588 1539.64 55.8481 1461.24 49.5325C1413.43 45.6885 1355.29 50.0279 1304.01 53.8669C1289.56 54.9453 1275.93 55.9595 1262.84 56.7898C1204.78 60.4422 1033.28 59.9357 976.12 55.9392C818.54 44.9316 658.066 47.6601 502.883 50.2945L15.1187 58.5851C14.9724 57.3427 14.8276 55.4131 14.6832 53.2986L502.831 45.0088C658.088 42.3746 818.626 39.6463 976.365 50.6674C1032.1 54.5683 1206.01 55.0669 1262.63 51.5038C1275.69 50.6866 1289.33 49.6725 1303.76 48.594C1355.16 44.7421 1413.44 40.3898 1461.52 44.2607C1539.9 50.5763 1585.73 53.187 1640.69 55.8837Z" fill="#C17C42"/>
<path d="M372.043 77.2559C372.036 80.2158 370.021 81.9159 358.116 84.1627C350.641 85.5735 339.621 87.0691 325.344 88.6103C300.325 91.3042 264.992 94.187 220.324 97.1815C142.463 102.403 56.5679 106.576 14.478 108.4C15.6743 106.46 16.8597 104.692 17.4701 102.989C59.2833 101.151 140.196 97.1916 214.778 92.2538C322.372 85.1418 355.081 80.0995 364.666 77.3719C356.4 75.6889 330.188 73.5307 247.609 75.5307C186.818 77.0101 117.083 80.2406 79.6216 82.6827C58.8098 84.0247 37.3832 84.2157 18.0538 84.2793C18.4619 82.6152 19.1678 81.0179 20.2987 79.8311C20.6081 79.5146 20.8322 79.2244 20.9817 78.9869C39.481 78.9084 59.7369 78.6751 79.3989 77.3966C117.286 74.9423 187.628 71.6867 248.748 70.2212C364.975 67.4358 369.434 72.7178 371.122 74.7036C371.717 75.4052 372.045 76.3045 372.043 77.2559Z" fill="#C17C42"/>
<path d="M819.703 62.7333C815.722 62.8039 812.849 62.8505 812.199 62.8358C706.395 59.8431 624.466 60.946 520.738 62.3449L498.087 62.6522C486.294 62.8115 476.018 64.5729 465.782 68.2108C461.723 69.6555 456.375 72.1676 456.853 77.3089C457.612 85.3974 474.835 89.8088 480.21 90.1112C559.348 94.4728 616.16 97.1207 675.616 97.2505C714.168 97.3346 753.84 96.3641 801.402 94.1027C802.041 94.0776 803.946 94.0289 806.863 93.9428C960.356 89.9438 964.136 79.7245 965.56 75.8824L965.945 74.8525L965.607 73.7947C963.44 67.1169 944.423 60.5742 819.725 62.7465L819.703 62.7333ZM806.768 88.6439C803.809 88.7167 801.882 88.7653 801.233 88.8035C680.465 94.539 610.732 91.9951 480.392 84.8129C472.793 84.3999 461.543 79.2615 461.069 76.7763C461.069 76.7631 461.573 75.1785 466.942 73.2742C476.805 69.7677 486.719 68.0715 498.129 67.9246L520.78 67.6173C624.465 66.2184 706.362 65.1286 812.103 68.1079C812.826 68.1359 815.445 68.0888 819.766 68.0057C834.509 67.7472 869.039 67.1487 900.351 68.0363C944.67 69.2827 957.062 72.8114 960.464 74.7613C955.039 78.2115 928.828 85.4483 806.768 88.6306L806.768 88.6439Z" fill="#C17C42"/>
<path d="M1647.36 185.302C1477.71 161.596 1304.74 162.077 1137.1 162.53L14.4275 165.55L14.3423 165.55C12.4806 165.123 11.1407 164.565 10.376 163.81C9.81302 163.267 10.2948 161.986 10.6803 160.917C10.7553 160.706 10.8302 160.494 10.8946 160.27L1137.09 157.245C1304.24 156.79 1476.69 156.321 1645.97 179.775C1646.46 181.626 1646.94 183.464 1647.36 185.302Z" fill="#C17C42"/>
<path d="M1648.9 197.581C1557.81 196.8 1466.14 191.698 1377.18 186.76C1278.25 181.258 1175.94 175.565 1074.88 175.846C986.107 176.075 896.117 178.878 809.098 181.569C722.046 184.273 632.024 187.062 543.2 187.305C446.511 187.556 347.388 185.701 251.522 183.906C171.484 182.41 88.9222 180.856 6.39016 180.49C6.89549 178.166 7.4953 176.449 7.99827 175.208C90.0194 175.586 172.049 177.126 251.587 178.621C347.432 180.416 446.544 182.271 543.201 182.019C631.972 181.777 721.962 178.987 808.992 176.283C896.044 173.592 986.055 170.789 1074.87 170.56C1176.03 170.292 1278.39 175.973 1377.38 181.475C1466.19 186.413 1557.74 191.488 1648.64 192.281C1648.85 194.052 1648.96 195.823 1648.9 197.581Z" fill="#C17C42"/>
<path d="M1534.5 155.8C1534.5 155.8 1534.61 155.919 1534.73 155.985C1385.39 136.711 1219.71 130.072 1042.06 136.239C957.003 139.198 830.194 138.009 737.605 137.146C671.582 136.527 619.428 136.043 611.453 137.333L611.293 137.36L611.133 137.359C411.987 131.731 210.304 138.03 11.5959 156.069C11.717 154.233 11.6784 152.396 11.7352 150.758C210.39 132.732 411.999 126.446 611.081 132.06C619.812 130.758 669.305 131.223 737.637 131.861C830.195 132.724 956.961 133.912 1041.95 130.953C1222.14 124.686 1390.05 131.607 1541.1 151.506C1538.51 152.783 1533.96 154.821 1534.5 155.8Z" fill="#C17C42"/>
<path d="M1647.53 205.255C1647.41 205.598 1647.28 205.955 1647.14 206.298C1646.85 207.064 1646.36 207.71 1645.78 208.145C1644.8 208.856 1643.52 209.448 1642.03 209.921L1642.01 209.921C1609.68 206.56 1567.93 206.773 1532.39 206.946C1524.24 206.994 1516.48 207.03 1509.3 207.028C1478.13 206.933 1382.96 204.241 1352.64 202.51C1158.98 191.424 1030.71 195.306 836.527 201.198L824.818 201.543C801.549 202.258 776.172 203.022 752.12 206.3C752.003 206.313 751.886 206.326 751.769 206.339C745.019 207.262 738.364 208.397 731.9 209.784L731.868 209.784L711.783 209.713C713.999 208.978 716.257 208.296 718.568 207.654C725.001 205.857 731.667 204.379 738.492 203.125C712.517 200.042 658.783 201.828 629.947 202.782C619.419 203.143 611.808 203.39 608.317 203.343L213.939 198.663C182.455 198.291 149.896 197.902 117.97 200.119C80.7748 202.693 42.4935 205.332 5.03327 202.462C5.19608 201.022 5.6895 199.279 6.16227 197.245C43.1012 200.008 80.946 197.382 117.737 194.833C149.812 192.617 182.435 193.005 213.982 193.378L608.36 198.058C611.766 198.105 619.739 197.845 629.831 197.497C681.883 195.773 738.086 194.496 752.398 200.949C776.396 197.737 801.592 196.96 824.712 196.27L836.432 195.913C1030.7 190.021 1159.04 186.125 1352.84 197.225C1382.94 198.942 1477.01 201.672 1508.73 201.741L1509.32 201.742C1516.48 201.758 1524.23 201.709 1532.37 201.66C1569.89 201.478 1614.31 201.245 1647.53 205.255Z" fill="#C17C42"/>
<path d="M1646.64 121.517C1586.47 115.016 1523.72 110.4 1451.09 107.096C1428.07 106.055 1403.53 104.389 1379.78 102.792C1339.1 100.047 1297.02 97.2064 1258.15 97.0291C1257.86 97.0284 1227.46 96.7507 1197.55 94.2936C1145.15 89.9904 1138.09 82.9981 1138.11 76.7216C1138.11 75.757 1138.44 74.8327 1139.05 74.1337C1140.63 72.274 1143.57 68.8052 1204.73 71.0926C1235.63 72.2568 1273.35 74.5723 1305.8 76.6384L1314.65 75.006C1355.38 67.5101 1397.5 59.7663 1438.29 60.6085C1461.97 61.1095 1485.9 64.1216 1509.04 67.0395C1521.76 68.6398 1534.93 70.2938 1547.88 71.5113C1578.17 74.3524 1608.89 74.9348 1639.26 73.2436C1639.06 75.1988 1638.89 77.0088 1638.8 78.5546C1608.48 80.2194 1577.8 79.6107 1547.56 76.783C1534.55 75.5653 1521.36 73.898 1508.6 72.2977C1485.55 69.3932 1461.73 66.3945 1438.22 65.8939C1401.81 65.1405 1364.17 71.3217 1327.42 78.0202C1356.47 79.8675 1378.69 81.2109 1384.47 80.8668C1439.55 77.6307 1477.37 80.6468 1513.95 83.5544C1551.42 86.5432 1586.91 89.3692 1639.34 86.048C1639.76 87.8857 1640.29 89.3668 1640.6 91.257C1587.36 94.6954 1551.51 91.8422 1513.68 88.8261C1477.21 85.9187 1439.51 82.9162 1384.67 86.1528C1378.04 86.5347 1351.19 84.8244 1317.21 82.6624C1260.04 79.0095 1154.98 72.3053 1142.75 77.5377C1144.36 79.6423 1152.89 85.3297 1197.84 89.0219C1227.62 91.4655 1257.88 91.7429 1258.17 91.7436C1297.15 91.9212 1339.28 94.7616 1380.02 97.5065C1403.74 99.1176 1428.27 100.77 1451.25 101.811C1523.91 105.115 1586.71 109.745 1646.93 116.245C1646.99 116.549 1647.04 116.866 1647.1 117.21C1647.23 118.162 1646.99 119.707 1646.64 121.517Z" fill="#C17C42"/>
</g>
</g>
<defs>
<clipPath id="clip0_64_329">
<rect width="1661" height="45" fill="white" transform="translate(0 1092)"/>
</clipPath>
<clipPath id="clip1_64_329">
<rect width="41" height="1050" fill="white" transform="translate(1568 163)"/>
</clipPath>
<clipPath id="clip2_64_329">
<rect width="41" height="1050" fill="white" transform="translate(52 163)"/>
</clipPath>
<clipPath id="clip3_64_329">
<rect width="1644" height="216.02" fill="white" transform="translate(5.37988) rotate(0.125081)"/>
</clipPath>
</defs>
</svg>
